P3
# Created by GIMP version 2.10.32 PNM plug-in
18 24
255
33
156
0
33
156
0
33
156
0
33
156
0
33
156
0
33
156
0
33
156
0
33
156
0
33
156
0
33
156
0
33
156
0
33
156
0
33
156
0
33
156
0
33
156
0
33
156
0
33
156
0
33
156
0
33
156
0
33
156
0
33
156
0
33
156
0
33
156
0
33
156
0
33
156
0
33
156
0
33
156
0
33
156
0
33
156
0
33
156
0
33
156
0
33
156
0
33
156
0
33
156
0
33
156
0
33
156
0
33
156
0
33
156
0
33
156
0
33
156
0
33
156
0
33
156
0
33
156
0
33
156
0
33
156
0
33
156
0
33
156
0
33
156
0
33
156
0
33
156
0
33
156
0
33
156
0
33
156
0
33
156
0
33
156
0
33
156
0
33
156
0
33
156
0
33
156
0
33
156
0
33
156
0
33
156
0
33
156
0
33
156
0
33
156
0
33
156
0
33
156
0
33
156
0
33
156
0
33
156
0
33
156
0
33
156
0
33
156
0
33
156
0
33
156
0
33
156
0
33
156
0
33
156
0
33
156
0
33
156
0
33
156
0
33
156
0
33
156
0
33
156
0
33
156
0
33
156
0
33
156
0
33
156
0
33
156
0
33
156
0
33
156
0
33
156
0
33
156
0
33
156
0
33
156
0
33
156
0
33
156
0
33
156
0
33
156
0
33
156
0
33
156
0
33
156
0
33
156
0
33
156
0
33
156
0
33
156
0
33
156
0
33
156
0
33
156
0
33
156
0
33
156
0
33
156
0
33
156
0
33
156
0
33
156
0
33
156
0
33
156
0
33
156
0
33
156
0
33
156
0
33
156
0
33
156
0
33
156
0
33
156
0
33
156
0
33
156
0
33
156
0
33
156
0
33
156
0
33
156
0
33
156
0
33
156
0
33
156
0
33
156
0
33
156
0
33
156
0
33
156
0
33
156
0
33
156
0
33
156
0
33
156
0
33
156
0
33
156
0
33
156
0
33
156
0
33
156
0
33
156
0
33
156
0
33
156
0
33
156
0
33
156
0
33
156
0
33
156
0
33
156
0
33
156
0
33
156
0
33
156
0
33
156
0
33
156
0
33
156
0
33
156
0
33
156
0
33
156
0
33
156
0
33
156
0
33
156
0
33
156
0
33
156
0
33
156
0
33
156
0
33
156
0
33
156
0
33
156
0
33
156
0
33
156
0
33
156
0
33
156
0
33
156
0
33
156
0
33
156
0
33
156
0
33
156
0
33
156
0
33
156
0
33
156
0
33
156
0
33
156
0
33
156
0
33
156
0
33
156
0
33
156
0
33
156
0
33
156
0
33
156
0
33
156
0
33
156
0
33
156
0
33
156
0
33
156
0
33
156
0
33
156
0
33
156
0
33
156
0
33
156
0
33
156
0
33
156
0
33
156
0
33
156
0
33
156
0
33
156
0
33
156
0
33
156
0
33
156
0
33
156
0
33
156
0
33
156
0
33
156
0
33
156
0
33
156
0
33
156
0
33
156
0
33
156
0
33
156
0
33
156
0
33
156
0
33
156
0
33
156
0
33
156
0
33
156
0
33
156
0
33
156
0
33
156
0
33
156
0
33
156
0
33
156
0
33
156
0
33
156
0
33
156
0
8
8
8
33
156
0
33
156
0
33
156
0
33
156
0
33
156
0
33
156
0
33
156
0
33
156
0
8
8
8
33
156
0
33
156
0
33
156
0
33
156
0
33
156
0
33
156
0
33
156
0
8
8
8
107
107
107
33
156
0
33
156
0
33
156
0
33
156
0
33
156
0
33
156
0
33
156
0
33
156
0
107
107
107
8
8
8
33
156
0
33
156
0
33
156
0
33
156
0
33
156
0
41
41
41
156
90
66
156
90
66
8
8
8
33
156
0
8
8
8
33
156
0
33
156
0
8
8
8
33
156
0
8
8
8
156
90
66
156
90
66
41
41
41
33
156
0
33
156
0
33
156
0
41
41
41
156
90
66
41
41
41
41
41
41
156
90
66
8
8
8
8
8
8
8
8
8
8
8
8
8
8
8
8
8
8
156
90
66
41
41
41
41
41
41
156
90
66
41
41
41
33
156
0
33
156
0
8
8
8
41
41
41
8
8
8
41
41
41
8
8
8
8
8
8
173
206
115
8
8
8
8
8
8
173
206
115
8
8
8
8
8
8
41
41
41
8
8
8
41
41
41
8
8
8
33
156
0
8
8
8
8
8
8
8
8
8
41
41
41
8
8
8
8
8
8
8
8
8
8
8
8
8
8
8
8
8
8
8
8
8
8
8
8
8
8
8
8
8
8
41
41
41
8
8
8
8
8
8
8
8
8
8
8
8
33
156
0
33
156
0
8
8
8
33
156
0
33
156
0
33
156
0
8
8
8
8
8
8
8
8
8
8
8
8
33
156
0
33
156
0
33
156
0
8
8
8
33
156
0
33
156
0
8
8
8
33
156
0
33
156
0
33
156
0
33
156
0
33
156
0
33
156
0
8
8
8
33
156
0
8
8
8
8
8
8
33
156
0
8
8
8
33
156
0
33
156
0
33
156
0
33
156
0
33
156
0
33
156
0
33
156
0
33
156
0
33
156
0
33
156
0
33
156
0
33
156
0
33
156
0
33
156
0
33
156
0
33
156
0
33
156
0
33
156
0
33
156
0
33
156
0
33
156
0
33
156
0
33
156
0
33
156
0
33
156
0
33
156
0
33
156
0
33
156
0
33
156
0
33
156
0
33
156
0
33
156
0
33
156
0
33
156
0
33
156
0
33
156
0
33
156
0
33
156
0
33
156
0
33
156
0
33
156
0
33
156
0
33
156
0
33
156
0
33
156
0
33
156
0
33
156
0
33
156
0
33
156
0
33
156
0
33
156
0
33
156
0
33
156
0
33
156
0
33
156
0
33
156
0
33
156
0
33
156
0
33
156
0
33
156
0
