P3
# Created by GIMP version 2.10.32 PNM plug-in
18 24
255
155
179
121
155
179
121
155
179
121
155
179
121
155
179
121
155
179
121
155
179
121
155
179
121
155
179
121
155
179
121
155
179
121
155
179
121
155
179
121
155
179
121
155
179
121
155
179
121
155
179
121
155
179
121
155
179
121
155
179
121
155
179
121
155
179
121
155
179
121
155
179
121
155
179
121
155
179
121
155
179
121
155
179
121
155
179
121
155
179
121
155
179
121
155
179
121
155
179
121
155
179
121
155
179
121
155
179
121
155
179
121
155
179
121
155
179
121
155
179
121
155
179
121
155
179
121
155
179
121
155
179
121
155
179
121
155
179
121
155
179
121
155
179
121
155
179
121
155
179
121
155
179
121
155
179
121
155
179
121
155
179
121
155
179
121
155
179
121
155
179
121
155
179
121
155
179
121
155
179
121
155
179
121
155
179
121
155
179
121
155
179
121
155
179
121
155
179
121
155
179
121
155
179
121
155
179
121
155
179
121
155
179
121
155
179
121
155
179
121
155
179
121
155
179
121
155
179
121
155
179
121
155
179
121
155
179
121
155
179
121
155
179
121
155
179
121
155
179
121
155
179
121
155
179
121
155
179
121
155
179
121
155
179
121
155
179
121
155
179
121
155
179
121
155
179
121
155
179
121
155
179
121
155
179
121
155
179
121
155
179
121
155
179
121
155
179
121
155
179
121
155
179
121
41
41
41
41
41
41
41
41
41
155
179
121
155
179
121
155
179
121
155
179
121
155
179
121
155
179
121
155
179
121
155
179
121
155
179
121
155
179
121
155
179
121
155
179
121
155
179
121
155
179
121
82
74
8
106
90
24
131
123
65
131
123
65
82
74
8
82
74
8
155
179
121
155
179
121
155
179
121
155
179
121
155
179
121
155
179
121
155
179
121
155
179
121
155
179
121
155
179
121
155
179
121
82
74
8
131
123
65
131
123
65
172
164
123
172
164
123
131
123
65
131
123
65
82
74
8
155
179
121
155
179
121
155
179
121
155
179
121
155
179
121
155
179
121
155
179
121
155
179
121
155
179
121
41
41
41
106
90
24
131
123
65
172
164
123
172
164
123
131
123
65
131
123
65
131
123
65
106
90
24
41
41
41
155
179
121
155
179
121
155
179
121
155
179
121
155
179
121
155
179
121
155
179
121
155
179
121
41
41
41
106
90
24
131
123
65
131
123
65
106
90
24
106
90
24
131
123
65
131
123
65
131
123
65
41
41
41
155
179
121
155
179
121
155
179
121
155
179
121
155
179
121
155
179
121
155
179
121
155
179
121
41
41
41
106
90
24
82
74
8
131
123
65
131
123
65
172
164
123
172
164
123
131
123
65
106
90
24
82
74
8
155
179
121
155
179
121
155
179
121
155
179
121
155
179
121
155
179
121
155
179
121
155
179
121
41
41
41
106
90
24
82
74
8
82
74
8
82
74
8
172
164
123
131
123
65
41
41
41
106
90
24
82
74
8
155
179
121
155
179
121
155
179
121
155
179
121
155
179
121
155
179
121
155
179
121
155
179
121
41
41
41
82
74
8
131
123
65
41
41
41
131
123
65
131
123
65
106
90
24
41
41
41
131
123
65
41
41
41
155
179
121
155
179
121
155
179
121
155
179
121
155
179
121
155
179
121
41
41
41
41
41
41
82
74
8
41
41
41
106
90
24
41
41
41
106
90
24
131
123
65
131
123
65
41
41
41
131
123
65
41
41
41
155
179
121
155
179
121
155
179
121
155
179
121
41
41
41
82
74
8
82
74
8
82
74
8
82
74
8
41
41
41
41
41
41
41
41
41
131
123
65
106
90
24
172
164
123
131
123
65
82
74
8
155
179
121
155
179
121
155
179
121
155
179
121
41
41
41
82
74
8
131
123
65
131
123
65
131
123
65
106
90
24
41
41
41
41
41
41
82
74
8
106
90
24
131
123
65
82
74
8
82
74
8
41
41
41
155
179
121
155
179
121
155
179
121
155
179
121
41
41
41
82
74
8
172
164
123
172
164
123
131
123
65
82
74
8
41
41
41
41
41
41
41
41
41
82
74
8
131
123
65
82
74
8
41
41
41
155
179
121
155
179
121
155
179
121
131
123
65
155
179
121
41
41
41
82
74
8
106
90
24
131
123
65
106
90
24
41
41
41
41
41
41
41
41
41
0
0
0
82
74
8
131
123
65
131
123
65
41
41
41
155
179
121
155
179
121
155
179
121
155
179
121
155
179
121
82
74
8
106
90
24
131
123
65
41
41
41
82
74
8
82
74
8
131
123
65
106
90
24
41
41
41
41
41
41
131
123
65
41
41
41
155
179
121
155
179
121
155
179
121
155
179
121
155
179
121
41
41
41
82
74
8
172
164
123
131
123
65
41
41
41
131
123
65
82
74
8
106
90
24
131
123
65
41
41
41
155
179
121
131
123
65
155
179
121
155
179
121
155
179
121
155
179
121
155
179
121
41
41
41
41
41
41
82
74
8
172
164
123
131
123
65
41
41
41
82
74
8
82
74
8
82
74
8
41
41
41
155
179
121
155
179
121
155
179
121
155
179
121
155
179
121
155
179
121
155
179
121
41
41
41
131
123
65
41
41
41
172
164
123
131
123
65
131
123
65
41
41
41
41
41
41
41
41
41
41
41
41
41
41
41
41
41
41
41
41
41
41
41
41
41
41
41
155
179
121
155
179
121
155
179
121
41
41
41
41
41
41
41
41
41
172
164
123
82
74
8
131
123
65
131
123
65
131
123
65
82
74
8
82
74
8
131
123
65
131
123
65
41
41
41
131
123
65
41
41
41
155
179
121
155
179
121
155
179
121
155
179
121
155
179
121
41
41
41
82
74
8
82
74
8
82
74
8
41
41
41
41
41
41
41
41
41
82
74
8
41
41
41
131
123
65
41
41
41
131
123
65
41
41
41
155
179
121
155
179
121
155
179
121
