P3
# Created by GIMP version 2.10.32 PNM plug-in
18 24
255
228
5
255
228
5
255
228
5
255
228
5
255
228
5
255
228
5
255
228
5
255
228
5
255
228
5
255
228
5
255
228
5
255
228
5
255
228
5
255
228
5
255
228
5
255
228
5
255
228
5
255
228
5
255
228
5
255
228
5
255
228
5
255
228
5
255
228
5
255
228
5
255
228
5
255
228
5
255
228
5
255
228
5
255
228
5
255
228
5
255
228
5
255
228
5
255
228
5
255
228
5
255
228
5
255
228
5
255
228
5
255
228
5
255
228
5
255
228
5
255
228
5
255
228
5
255
228
5
255
228
5
255
228
5
255
228
5
255
228
5
255
228
5
255
228
5
255
228
5
255
228
5
255
228
5
255
228
5
255
228
5
255
228
5
255
228
5
255
228
5
255
228
5
255
228
5
255
228
5
255
228
5
255
228
5
255
228
5
255
228
5
255
228
5
255
228
5
255
228
5
255
228
5
255
228
5
255
228
5
255
228
5
255
228
5
255
228
5
255
228
5
255
228
5
255
228
5
255
228
5
255
228
5
255
228
5
255
228
5
255
228
5
255
228
5
255
228
5
255
228
5
255
228
5
255
228
5
255
228
5
255
228
5
255
228
5
255
228
5
255
228
5
255
228
5
255
228
5
255
228
5
255
228
5
255
187
191
247
187
191
247
187
191
247
187
191
247
187
191
247
187
191
247
187
191
247
187
191
247
228
5
255
228
5
255
228
5
255
228
5
255
228
5
255
228
5
255
228
5
255
228
5
255
187
191
247
187
191
247
187
191
247
255
255
255
255
255
255
255
255
255
255
255
255
255
255
255
255
255
255
255
255
255
187
191
247
187
191
247
228
5
255
228
5
255
228
5
255
228
5
255
228
5
255
187
191
247
187
191
247
255
255
255
255
255
255
255
255
255
255
255
255
255
255
255
255
255
255
255
255
255
255
255
255
255
255
255
255
255
255
187
191
247
187
191
247
228
5
255
228
5
255
228
5
255
228
5
255
187
191
247
255
255
255
255
255
255
255
255
255
255
255
255
255
255
255
255
255
255
255
255
255
255
255
255
255
255
255
255
255
255
255
255
255
255
255
255
187
191
247
228
5
255
228
5
255
228
5
255
187
191
247
255
255
255
255
255
255
255
255
255
255
255
255
255
255
255
255
255
255
255
255
255
255
255
255
255
255
255
255
255
255
255
255
255
255
255
255
255
255
255
255
255
255
187
191
247
228
5
255
228
5
255
187
191
247
255
255
255
255
255
255
255
255
255
255
255
255
255
255
255
255
255
255
255
255
255
255
255
255
255
255
255
255
255
255
255
255
255
79
79
77
79
79
77
79
79
77
175
158
157
228
5
255
228
5
255
175
158
157
187
191
247
255
255
255
255
255
255
255
255
255
255
255
255
255
255
255
255
255
255
255
255
255
255
255
255
255
255
255
79
79
77
189
133
26
128
32
0
128
32
0
79
79
77
228
5
255
228
5
255
175
158
157
187
191
247
187
191
247
255
255
255
255
255
255
255
255
255
255
255
255
255
255
255
255
255
255
255
255
255
79
79
77
128
32
0
38
2
38
189
133
26
128
32
0
79
79
77
228
5
255
228
5
255
175
158
157
187
191
247
187
191
247
187
191
247
187
191
247
255
255
255
255
255
255
255
255
255
255
255
255
255
255
255
128
32
0
140
0
6
140
0
6
38
2
38
38
2
38
79
79
77
228
5
255
228
5
255
143
158
126
175
158
157
187
191
247
187
191
247
187
191
247
187
191
247
255
255
255
255
255
255
255
255
255
255
255
255
79
79
77
179
0
0
128
32
0
70
0
0
38
2
38
79
79
77
228
5
255
228
5
255
228
5
255
143
158
126
175
158
157
187
191
247
187
191
247
187
191
247
187
191
247
255
255
255
255
255
255
255
255
255
255
255
255
79
79
77
179
0
0
128
32
0
79
79
77
228
5
255
228
5
255
228
5
255
228
5
255
228
5
255
92
134
92
143
158
126
187
191
247
187
191
247
187
191
247
187
191
247
187
191
247
187
191
247
187
191
247
187
191
247
143
158
126
92
134
92
228
5
255
228
5
255
228
5
255
228
5
255
228
5
255
228
5
255
228
5
255
92
134
92
143
158
126
143
158
126
175
158
157
175
158
157
175
158
157
175
158
157
143
158
126
143
158
126
92
134
92
228
5
255
228
5
255
228
5
255
228
5
255
228
5
255
228
5
255
228
5
255
228
5
255
228
5
255
92
134
92
92
134
92
92
134
92
92
134
92
92
134
92
92
134
92
92
134
92
92
134
92
228
5
255
228
5
255
228
5
255
228
5
255
228
5
255
228
5
255
228
5
255
228
5
255
228
5
255
228
5
255
228
5
255
228
5
255
228
5
255
228
5
255
228
5
255
228
5
255
228
5
255
228
5
255
228
5
255
228
5
255
228
5
255
228
5
255
228
5
255
228
5
255
228
5
255
228
5
255
228
5
255
228
5
255
38
2
38
38
2
38
38
2
38
38
2
38
38
2
38
38
2
38
38
2
38
38
2
38
228
5
255
228
5
255
228
5
255
228
5
255
228
5
255
228
5
255
228
5
255
38
2
38
38
2
38
38
2
38
38
2
38
38
2
38
38
2
38
38
2
38
38
2
38
38
2
38
38
2
38
38
2
38
38
2
38
38
2
38
38
2
38
228
5
255
228
5
255
228
5
255
228
5
255
38
2
38
38
2
38
38
2
38
38
2
38
38
2
38
38
2
38
38
2
38
38
2
38
38
2
38
38
2
38
38
2
38
38
2
38
38
2
38
38
2
38
228
5
255
228
5
255
228
5
255
228
5
255
228
5
255
228
5
255
228
5
255
38
2
38
38
2
38
38
2
38
38
2
38
38
2
38
38
2
38
38
2
38
38
2
38
228
5
255
228
5
255
228
5
255
228
5
255
228
5
255
