P3
# Created by GIMP version 2.10.32 PNM plug-in
18 24
255
228
5
255
228
5
255
228
5
255
228
5
255
228
5
255
228
5
255
228
5
255
228
5
255
228
5
255
228
5
255
228
5
255
228
5
255
228
5
255
228
5
255
228
5
255
228
5
255
228
5
255
228
5
255
228
5
255
228
5
255
228
5
255
228
5
255
228
5
255
228
5
255
228
5
255
228
5
255
228
5
255
228
5
255
228
5
255
228
5
255
228
5
255
228
5
255
228
5
255
228
5
255
228
5
255
228
5
255
228
5
255
16
16
16
16
16
16
228
5
255
228
5
255
228
5
255
228
5
255
228
5
255
228
5
255
228
5
255
228
5
255
228
5
255
228
5
255
228
5
255
228
5
255
228
5
255
228
5
255
228
5
255
16
16
16
0
170
60
0
108
55
16
16
16
228
5
255
16
16
16
16
16
16
228
5
255
228
5
255
228
5
255
228
5
255
228
5
255
228
5
255
228
5
255
228
5
255
228
5
255
228
5
255
228
5
255
228
5
255
228
5
255
16
16
16
0
108
55
16
16
16
138
100
58
189
133
58
16
16
16
228
5
255
228
5
255
228
5
255
228
5
255
228
5
255
228
5
255
228
5
255
228
5
255
228
5
255
228
5
255
228
5
255
16
16
16
0
108
55
16
16
16
228
5
255
16
16
16
138
100
58
189
133
58
16
16
16
228
5
255
228
5
255
228
5
255
228
5
255
228
5
255
228
5
255
228
5
255
228
5
255
228
5
255
228
5
255
16
16
16
0
170
60
16
16
16
228
5
255
228
5
255
16
16
16
138
100
58
189
133
58
16
16
16
16
16
16
16
16
16
228
5
255
228
5
255
228
5
255
228
5
255
228
5
255
228
5
255
228
5
255
228
5
255
16
16
16
228
5
255
228
5
255
228
5
255
16
16
16
138
100
58
138
100
58
138
100
58
138
100
58
138
100
58
16
16
16
16
16
16
228
5
255
228
5
255
228
5
255
228
5
255
228
5
255
228
5
255
228
5
255
228
5
255
228
5
255
16
16
16
72
24
24
138
100
58
138
100
58
189
133
90
189
133
90
189
133
58
189
133
58
138
100
58
16
16
16
228
5
255
228
5
255
228
5
255
228
5
255
228
5
255
228
5
255
228
5
255
228
5
255
16
16
16
72
24
24
138
100
58
189
133
58
189
133
58
189
133
58
189
133
58
189
133
58
138
100
58
16
16
16
228
5
255
228
5
255
228
5
255
228
5
255
228
5
255
228
5
255
228
5
255
16
16
16
72
24
24
138
100
58
138
100
58
138
100
58
138
100
58
138
100
58
138
100
58
138
100
58
138
100
58
138
100
58
16
16
16
228
5
255
228
5
255
228
5
255
228
5
255
228
5
255
228
5
255
16
16
16
72
24
24
72
24
24
138
100
58
138
100
58
138
100
58
138
100
58
138
100
58
189
133
58
138
100
58
189
133
58
16
16
16
228
5
255
228
5
255
228
5
255
228
5
255
228
5
255
228
5
255
228
5
255
16
16
16
72
24
24
72
24
24
72
24
24
138
100
58
138
100
58
138
100
58
16
16
16
138
100
58
16
16
16
16
16
16
228
5
255
228
5
255
228
5
255
228
5
255
228
5
255
228
5
255
228
5
255
16
16
16
72
24
24
72
24
24
72
24
24
72
24
24
138
100
58
138
100
58
72
24
24
138
100
58
72
24
24
16
16
16
228
5
255
228
5
255
228
5
255
228
5
255
228
5
255
228
5
255
228
5
255
16
16
16
16
16
16
72
24
24
72
24
24
72
24
24
138
100
58
138
100
58
138
100
58
138
100
58
138
100
58
16
16
16
228
5
255
228
5
255
228
5
255
228
5
255
228
5
255
228
5
255
228
5
255
16
16
16
189
133
58
138
100
58
16
16
16
72
24
24
138
100
58
16
16
16
16
16
16
16
16
16
16
16
16
16
16
16
228
5
255
228
5
255
228
5
255
228
5
255
228
5
255
228
5
255
16
16
16
189
133
58
189
133
90
189
133
58
16
16
16
16
16
16
16
16
16
138
100
58
189
133
58
189
133
58
72
24
24
138
100
58
16
16
16
228
5
255
228
5
255
228
5
255
16
16
16
189
133
58
138
100
58
138
100
58
72
24
24
16
16
16
138
100
58
16
16
16
72
24
24
138
100
58
138
100
58
16
16
16
16
16
16
189
133
58
16
16
16
228
5
255
228
5
255
228
5
255
16
16
16
189
133
90
189
133
58
72
24
24
16
16
16
72
24
24
138
100
58
138
100
58
16
16
16
16
16
16
16
16
16
16
16
16
16
16
16
16
16
16
228
5
255
228
5
255
228
5
255
228
5
255
228
5
255
16
16
16
16
16
16
16
16
16
72
24
24
72
24
24
138
100
58
138
100
58
16
16
16
16
16
16
16
16
16
16
16
16
16
16
16
16
16
16
228
5
255
228
5
255
228
5
255
228
5
255
228
5
255
16
16
16
138
100
58
72
24
24
16
16
16
72
24
24
72
24
24
72
24
24
72
24
24
16
16
16
72
24
24
138
100
58
189
133
58
16
16
16
228
5
255
228
5
255
228
5
255
228
5
255
16
16
16
16
16
16
138
100
58
138
100
58
189
133
58
16
16
16
16
16
16
16
16
16
16
16
16
138
100
58
138
100
58
16
16
16
16
16
16
16
16
16
16
16
16
16
16
16
228
5
255
228
5
255
16
16
16
16
16
16
16
16
16
16
16
16
138
100
58
189
133
58
189
133
58
16
16
16
16
16
16
16
16
16
16
16
16
16
16
16
16
16
16
16
16
16
16
16
16
16
16
16
228
5
255
228
5
255
228
5
255
228
5
255
16
16
16
16
16
16
16
16
16
16
16
16
16
16
16
16
16
16
16
16
16
16
16
16
16
16
16
16
16
16
16
16
16
16
16
16
228
5
255
228
5
255
