P3
# Created by GIMP version 2.10.32 PNM plug-in
18 24
255
4
130
132
4
130
132
4
130
132
4
130
132
4
130
132
4
130
132
4
130
132
4
130
132
49
49
49
49
49
49
49
49
49
49
49
49
49
49
49
49
49
49
4
130
132
4
130
132
4
130
132
4
130
132
4
130
132
4
130
132
4
130
132
4
130
132
4
130
132
4
130
132
4
130
132
49
49
49
115
107
107
115
107
107
148
148
140
173
173
156
239
231
206
123
123
115
49
49
49
4
130
132
4
130
132
4
130
132
4
130
132
4
130
132
4
130
132
4
130
132
4
130
132
4
130
132
4
130
132
49
49
49
115
107
107
148
148
140
173
173
156
115
107
107
115
107
107
255
255
255
123
123
115
49
49
49
4
130
132
4
130
132
4
130
132
4
130
132
4
130
132
4
130
132
4
130
132
4
130
132
49
49
49
115
107
107
148
148
140
173
173
156
173
173
156
49
49
49
49
49
49
173
173
156
49
49
49
49
49
49
4
130
132
4
130
132
4
130
132
4
130
132
4
130
132
4
130
132
4
130
132
4
130
132
49
49
49
115
107
107
148
148
140
173
173
156
49
49
49
49
49
49
49
49
49
173
173
156
49
49
49
49
49
49
4
130
132
4
130
132
4
130
132
4
130
132
4
130
132
4
130
132
4
130
132
4
130
132
49
49
49
49
49
49
115
107
107
115
107
107
255
255
255
255
255
255
239
231
206
239
231
206
173
173
156
49
49
49
4
130
132
4
130
132
4
130
132
4
130
132
4
130
132
4
130
132
49
49
49
49
49
49
49
49
49
49
49
49
49
49
49
49
49
49
49
49
49
239
231
206
49
49
49
239
231
206
49
49
49
4
130
132
4
130
132
4
130
132
4
130
132
4
130
132
4
130
132
49
49
49
148
148
140
173
173
156
239
231
206
115
107
107
49
49
49
115
107
107
49
49
49
173
173
156
49
49
49
173
173
156
49
49
49
4
130
132
4
130
132
4
130
132
4
130
132
4
130
132
4
130
132
4
130
132
49
49
49
49
49
49
49
49
49
239
231
206
49
49
49
49
49
49
49
49
49
49
49
49
49
49
49
49
49
49
4
130
132
4
130
132
4
130
132
4
130
132
4
130
132
4
130
132
4
130
132
4
130
132
49
49
49
173
173
156
49
49
49
49
49
49
148
148
140
148
148
140
49
49
49
173
173
156
49
49
49
4
130
132
4
130
132
4
130
132
4
130
132
4
130
132
4
130
132
4
130
132
4
130
132
49
49
49
173
173
156
49
49
49
49
49
49
49
49
49
49
49
49
49
49
49
115
107
107
49
49
49
49
49
49
4
130
132
4
130
132
4
130
132
4
130
132
4
130
132
4
130
132
4
130
132
49
49
49
115
107
107
49
49
49
49
49
49
49
49
49
115
107
107
173
173
156
49
49
49
173
173
156
49
49
49
115
107
107
49
49
49
4
130
132
4
130
132
4
130
132
4
130
132
4
130
132
4
130
132
49
49
49
239
231
206
49
49
49
4
130
132
49
49
49
49
49
49
49
49
49
49
49
49
49
49
49
49
49
49
173
173
156
49
49
49
49
49
49
4
130
132
4
130
132
4
130
132
4
130
132
4
130
132
49
49
49
115
107
107
49
49
49
4
130
132
49
49
49
115
107
107
173
173
156
49
49
49
4
130
132
4
130
132
49
49
49
115
107
107
123
123
115
49
49
49
4
130
132
4
130
132
4
130
132
4
130
132
49
49
49
173
173
156
49
49
49
4
130
132
49
49
49
49
49
49
49
49
49
4
130
132
4
130
132
4
130
132
4
130
132
49
49
49
173
173
156
49
49
49
4
130
132
4
130
132
4
130
132
49
49
49
173
173
156
49
49
49
49
49
49
4
130
132
49
49
49
49
49
49
4
130
132
4
130
132
4
130
132
4
130
132
4
130
132
4
130
132
49
49
49
4
130
132
4
130
132
4
130
132
4
130
132
49
49
49
49
49
49
4
130
132
4
130
132
4
130
132
4
130
132
49
49
49
49
49
49
49
49
49
4
130
132
4
130
132
4
130
132
4
130
132
4
130
132
4
130
132
4
130
132
4
130
132
4
130
132
4
130
132
4
130
132
4
130
132
4
130
132
4
130
132
49
49
49
49
49
49
123
123
115
49
49
49
4
130
132
4
130
132
4
130
132
4
130
132
4
130
132
4
130
132
4
130
132
4
130
132
4
130
132
4
130
132
4
130
132
4
130
132
4
130
132
4
130
132
49
49
49
173
173
156
173
173
156
49
49
49
49
49
49
4
130
132
4
130
132
4
130
132
4
130
132
4
130
132
4
130
132
4
130
132
4
130
132
4
130
132
4
130
132
49
49
49
49
49
49
4
130
132
49
49
49
49
49
49
49
49
49
173
173
156
173
173
156
49
49
49
4
130
132
4
130
132
4
130
132
4
130
132
4
130
132
4
130
132
4
130
132
4
130
132
49
49
49
115
107
107
115
107
107
49
49
49
115
107
107
123
123
115
49
49
49
49
49
49
214
206
181
49
49
49
4
130
132
4
130
132
4
130
132
4
130
132
4
130
132
4
130
132
4
130
132
4
130
132
49
49
49
173
173
156
49
49
49
49
49
49
49
49
49
49
49
49
4
130
132
49
49
49
123
123
115
49
49
49
49
49
49
49
49
49
4
130
132
4
130
132
4
130
132
4
130
132
4
130
132
4
130
132
49
49
49
173
173
156
173
173
156
49
49
49
4
130
132
4
130
132
49
49
49
115
107
107
123
123
115
173
173
156
173
173
156
173
173
156
49
49
49
4
130
132
4
130
132
4
130
132
4
130
132
49
49
49
49
49
49
49
49
49
49
49
49
49
49
49
49
49
49
49
49
49
49
49
49
49
49
49
49
49
49
49
49
49
49
49
49
49
49
49
4
130
132
4
130
132
4
130
132
4
130
132
