P3
# Created by GIMP version 2.10.34 PNM plug-in
18 24
255
33
156
0
33
156
0
33
156
0
33
156
0
33
156
0
33
156
0
33
156
0
33
156
0
33
156
0
33
156
0
33
156
0
33
156
0
33
156
0
33
156
0
33
156
0
33
156
0
33
156
0
33
156
0
33
156
0
33
156
0
33
156
0
33
156
0
33
156
0
33
156
0
33
156
0
33
156
0
33
156
0
33
156
0
33
156
0
33
156
0
33
156
0
33
156
0
33
156
0
33
156
0
33
156
0
33
156
0
33
156
0
33
156
0
33
156
0
33
156
0
33
156
0
33
156
0
33
156
0
33
156
0
33
156
0
33
156
0
33
156
0
33
156
0
33
156
0
33
156
0
33
156
0
33
156
0
33
156
0
33
156
0
33
156
0
33
156
0
33
156
0
33
156
0
33
156
0
33
156
0
33
156
0
33
156
0
33
156
0
33
156
0
33
156
0
33
156
0
33
156
0
33
156
0
33
156
0
33
156
0
33
156
0
33
156
0
33
156
0
33
156
0
33
156
0
33
156
0
33
156
0
33
156
0
33
156
0
33
156
0
33
156
0
33
156
0
33
156
0
33
156
0
33
156
0
33
156
0
33
156
0
33
156
0
33
156
0
33
156
0
33
156
0
33
156
0
33
156
0
33
156
0
33
156
0
33
156
0
33
156
0
33
156
0
33
156
0
33
156
0
33
156
0
33
156
0
33
156
0
33
156
0
33
156
0
33
156
0
33
156
0
33
156
0
33
156
0
33
156
0
33
156
0
33
156
0
33
156
0
33
156
0
33
156
0
33
156
0
33
156
0
33
156
0
33
156
0
33
156
0
33
156
0
33
156
0
33
156
0
33
156
0
33
156
0
33
156
0
33
156
0
33
156
0
33
156
0
33
156
0
33
156
0
33
156
0
33
156
0
33
156
0
33
156
0
33
156
0
33
156
0
33
156
0
33
156
0
33
156
0
33
156
0
33
156
0
33
156
0
33
156
0
33
156
0
33
156
0
33
156
0
33
156
0
33
156
0
33
156
0
33
156
0
33
156
0
33
156
0
33
156
0
33
156
0
33
156
0
33
156
0
33
156
0
33
156
0
33
156
0
33
156
0
33
156
0
33
156
0
33
156
0
33
156
0
33
156
0
33
156
0
33
156
0
33
156
0
33
156
0
214
214
214
214
214
214
214
214
214
214
214
214
214
214
214
214
214
214
33
156
0
33
156
0
33
156
0
33
156
0
33
156
0
33
156
0
33
156
0
33
156
0
33
156
0
33
156
0
33
156
0
214
214
214
189
189
189
156
156
156
156
156
156
156
156
156
156
156
156
156
156
156
214
214
214
214
214
214
33
156
0
33
156
0
33
156
0
33
156
0
33
156
0
33
156
0
33
156
0
33
156
0
214
214
214
189
189
189
247
247
247
189
189
189
123
123
123
107
107
107
123
123
123
189
189
189
156
156
156
214
214
214
33
156
0
33
156
0
33
156
0
33
156
0
33
156
0
33
156
0
33
156
0
33
156
0
214
214
214
247
247
247
189
189
189
107
107
107
107
107
107
107
107
107
107
107
107
107
107
107
189
189
189
156
156
156
214
214
214
33
156
0
33
156
0
33
156
0
33
156
0
33
156
0
33
156
0
33
156
0
156
156
156
247
247
247
41
41
41
82
82
82
107
107
107
107
107
107
107
107
107
82
82
82
82
82
82
156
156
156
214
214
214
33
156
0
33
156
0
41
41
41
41
41
41
41
41
41
41
41
41
33
156
0
33
156
0
33
156
0
33
156
0
41
41
41
82
82
82
82
82
82
82
82
82
41
41
41
33
156
0
41
41
41
214
214
214
33
156
0
33
156
0
82
82
82
189
189
189
247
247
247
189
189
189
156
156
156
156
156
156
156
156
156
156
156
156
189
189
189
247
247
247
247
247
247
247
247
247
189
189
189
247
247
247
33
156
0
33
156
0
33
156
0
33
156
0
41
41
41
41
41
41
41
41
41
41
41
41
33
156
0
33
156
0
33
156
0
33
156
0
41
41
41
82
82
82
82
82
82
82
82
82
41
41
41
33
156
0
41
41
41
214
214
214
33
156
0
33
156
0
33
156
0
33
156
0
33
156
0
33
156
0
33
156
0
156
156
156
247
247
247
41
41
41
82
82
82
107
107
107
107
107
107
107
107
107
82
82
82
82
82
82
156
156
156
214
214
214
33
156
0
33
156
0
33
156
0
33
156
0
33
156
0
33
156
0
33
156
0
214
214
214
247
247
247
189
189
189
107
107
107
107
107
107
107
107
107
107
107
107
107
107
107
189
189
189
156
156
156
214
214
214
33
156
0
33
156
0
33
156
0
33
156
0
33
156
0
33
156
0
33
156
0
214
214
214
189
189
189
247
247
247
189
189
189
123
123
123
107
107
107
123
123
123
189
189
189
156
156
156
214
214
214
33
156
0
33
156
0
33
156
0
33
156
0
33
156
0
33
156
0
33
156
0
33
156
0
33
156
0
214
214
214
189
189
189
156
156
156
156
156
156
156
156
156
156
156
156
156
156
156
214
214
214
214
214
214
33
156
0
33
156
0
33
156
0
33
156
0
33
156
0
33
156
0
33
156
0
33
156
0
33
156
0
33
156
0
214
214
214
214
214
214
214
214
214
214
214
214
214
214
214
214
214
214
33
156
0
33
156
0
33
156
0
33
156
0
33
156
0
33
156
0
33
156
0
33
156
0
33
156
0
33
156
0
33
156
0
33
156
0
33
156
0
33
156
0
33
156
0
33
156
0
33
156
0
33
156
0
33
156
0
33
156
0
33
156
0
33
156
0
33
156
0
33
156
0
33
156
0
33
156
0
33
156
0
33
156
0
33
156
0
33
156
0
33
156
0
33
156
0
33
156
0
33
156
0
33
156
0
33
156
0
33
156
0
33
156
0
33
156
0
33
156
0
