P3
# Created by GIMP version 2.10.32 PNM plug-in
18 24
255
0
128
128
0
0
0
0
0
0
0
0
0
0
0
0
0
0
0
0
0
0
0
128
128
0
128
128
0
128
128
0
128
128
0
128
128
0
128
128
0
128
128
0
128
128
0
128
128
0
128
128
0
128
128
0
0
0
128
0
77
128
0
77
128
0
77
128
0
77
128
0
77
0
0
0
0
0
0
0
128
128
0
128
128
0
128
128
0
128
128
0
128
128
0
128
128
0
128
128
0
128
128
0
128
128
0
128
128
0
0
0
128
0
77
174
0
104
174
0
104
174
0
104
174
0
104
85
0
51
32
32
49
0
0
0
0
128
128
0
128
128
0
128
128
0
128
128
0
128
128
0
128
128
0
128
128
0
128
128
0
128
128
0
128
128
0
0
0
128
0
77
174
0
104
221
0
133
221
0
133
174
0
104
85
0
51
32
32
49
0
0
0
0
128
128
0
128
128
0
128
128
0
128
128
0
128
128
0
128
128
0
128
128
0
128
128
0
128
128
0
128
128
0
0
0
128
0
77
174
0
104
174
0
104
221
0
133
174
0
104
85
0
51
32
32
49
0
0
0
0
128
128
0
128
128
32
32
49
0
128
128
0
128
128
0
128
128
0
128
128
0
128
128
0
128
128
0
0
0
128
0
77
32
32
49
67
67
103
67
67
103
32
32
49
0
0
0
32
32
49
0
0
0
0
128
128
85
0
51
32
32
49
0
128
128
0
128
128
0
128
128
0
128
128
0
128
128
0
128
128
0
128
128
0
0
0
0
0
0
0
0
0
0
0
0
67
67
103
0
0
0
67
67
103
0
0
0
85
0
51
221
0
133
32
32
49
0
128
128
0
128
128
0
128
128
0
128
128
0
128
128
0
128
128
0
128
128
0
0
0
128
0
77
221
0
133
174
0
104
0
0
0
87
87
134
32
32
49
0
128
128
85
0
51
174
0
104
32
32
49
0
128
128
0
128
128
0
128
128
0
128
128
0
128
128
0
128
128
0
0
0
85
0
51
174
0
104
174
0
104
67
67
103
32
32
49
0
0
0
67
67
103
0
0
0
0
0
0
128
0
77
32
32
49
0
0
0
0
128
128
0
128
128
0
128
128
0
128
128
0
128
128
0
0
0
85
0
51
128
0
77
67
67
103
0
0
0
128
0
77
0
0
0
53
53
83
0
0
0
67
67
103
32
32
49
79
79
121
67
67
103
0
0
0
0
128
128
0
128
128
0
128
128
0
128
128
0
128
128
0
0
0
32
32
49
0
0
0
128
0
77
174
0
104
0
0
0
32
32
49
53
53
83
79
79
121
67
67
103
32
32
49
255
0
0
32
32
49
0
128
128
0
128
128
0
128
128
0
128
128
0
128
128
0
128
128
0
0
0
128
0
77
174
0
104
221
0
133
85
0
51
0
0
0
0
0
0
87
87
134
79
79
121
67
67
103
123
8
24
53
53
83
32
32
49
0
128
128
0
128
128
0
128
128
0
128
128
0
128
128
0
128
128
0
0
0
128
0
77
174
0
104
174
0
104
85
0
51
0
0
0
53
53
83
87
87
134
87
87
134
53
53
83
53
53
83
0
0
0
0
128
128
0
128
128
0
128
128
0
128
128
0
128
128
0
128
128
0
128
128
0
0
0
85
0
51
128
0
77
128
0
77
128
0
77
67
67
103
53
53
83
32
32
49
32
32
49
0
0
0
0
128
128
0
128
128
0
128
128
0
128
128
0
128
128
0
128
128
0
128
128
0
128
128
32
32
49
53
53
83
85
0
51
85
0
51
67
67
103
79
79
121
32
32
49
0
0
0
0
128
128
0
128
128
0
128
128
0
128
128
0
128
128
0
128
128
0
128
128
0
128
128
0
128
128
0
128
128
32
32
49
67
67
103
53
53
83
67
67
103
79
79
121
67
67
103
0
0
0
0
128
128
0
128
128
0
128
128
0
128
128
0
128
128
0
128
128
0
128
128
0
128
128
0
128
128
0
128
128
0
128
128
32
32
49
32
32
49
87
87
134
53
53
83
0
0
0
0
0
0
0
128
128
0
128
128
0
128
128
0
128
128
0
128
128
0
128
128
0
128
128
0
128
128
0
128
128
0
128
128
0
128
128
0
128
128
32
32
49
67
67
103
79
79
121
32
32
49
0
0
0
0
128
128
0
128
128
0
128
128
0
128
128
0
128
128
0
128
128
0
128
128
0
128
128
0
128
128
0
128
128
0
128
128
0
128
128
0
0
0
53
53
83
67
67
103
67
67
103
32
32
49
0
128
128
0
128
128
0
128
128
0
128
128
0
128
128
0
128
128
0
128
128
0
128
128
0
128
128
0
128
128
0
128
128
0
128
128
0
128
128
0
0
0
67
67
103
0
0
0
32
32
49
0
128
128
0
128
128
0
128
128
0
128
128
0
128
128
0
128
128
0
128
128
0
128
128
0
128
128
0
128
128
0
128
128
0
128
128
0
128
128
0
128
128
0
128
128
32
32
49
0
0
0
0
128
128
0
128
128
0
128
128
0
128
128
0
128
128
0
128
128
0
128
128
0
128
128
0
128
128
0
128
128
0
128
128
0
128
128
0
128
128
0
128
128
0
128
128
0
128
128
0
128
128
0
128
128
0
128
128
0
128
128
0
128
128
0
128
128
0
128
128
0
128
128
0
128
128
0
128
128
0
128
128
0
128
128
0
128
128
0
128
128
0
128
128
0
128
128
0
128
128
0
128
128
0
128
128
0
128
128
0
128
128
0
128
128
0
128
128
0
128
128
0
128
128
0
128
128
0
128
128
0
128
128
0
128
128
0
128
128
0
128
128
0
128
128
0
128
128
0
128
128
0
128
128
0
128
128
0
128
128
0
128
128
0
128
128
0
128
128
0
128
128
0
128
128
0
128
128
0
128
128
0
128
128
0
128
128
0
128
128
0
128
128
