P3
# Created by GIMP version 2.10.32 PNM plug-in
18 24
255
32
156
0
32
156
0
32
156
0
32
156
0
32
156
0
32
156
0
32
156
0
32
156
0
32
156
0
32
156
0
32
156
0
32
156
0
32
156
0
32
156
0
32
156
0
32
156
0
32
156
0
32
156
0
32
156
0
32
156
0
32
156
0
32
156
0
32
156
0
32
156
0
32
156
0
32
156
0
32
156
0
32
156
0
32
156
0
32
156
0
32
156
0
32
156
0
32
156
0
32
156
0
32
156
0
32
156
0
32
156
0
32
156
0
32
156
0
32
156
0
32
156
0
32
156
0
106
106
106
106
106
106
106
106
106
106
106
106
106
106
106
32
156
0
32
156
0
32
156
0
32
156
0
32
156
0
32
156
0
32
156
0
32
156
0
32
156
0
32
156
0
32
156
0
32
156
0
106
106
106
213
213
213
246
246
246
246
246
246
246
246
246
213
213
213
106
106
106
32
156
0
32
156
0
32
156
0
32
156
0
32
156
0
32
156
0
32
156
0
32
156
0
32
156
0
32
156
0
106
106
106
213
213
213
246
246
246
246
246
246
246
246
246
246
246
246
246
246
246
213
213
213
106
106
106
32
156
0
32
156
0
32
156
0
32
156
0
32
156
0
32
156
0
32
156
0
32
156
0
106
106
106
213
213
213
246
246
246
246
246
246
246
246
246
246
246
246
246
246
246
246
246
246
246
246
246
106
106
106
32
156
0
32
156
0
32
156
0
32
156
0
32
156
0
32
156
0
32
156
0
32
156
0
106
106
106
246
246
246
246
246
246
246
246
246
246
246
246
246
246
246
246
246
246
213
213
213
0
0
0
213
213
213
106
106
106
32
156
0
32
156
0
32
156
0
32
156
0
32
156
0
32
156
0
32
156
0
106
106
106
213
213
213
246
246
246
246
246
246
246
246
246
246
246
246
213
213
213
0
0
0
0
0
0
213
213
213
106
106
106
32
156
0
32
156
0
32
156
0
32
156
0
32
156
0
32
156
0
32
156
0
106
106
106
213
213
213
213
213
213
213
213
213
246
246
246
213
213
213
213
213
213
74
0
8
74
0
8
213
213
213
106
106
106
32
156
0
32
156
0
32
156
0
32
156
0
32
156
0
32
156
0
32
156
0
106
106
106
213
213
213
213
213
213
213
213
213
213
213
213
213
213
213
213
213
213
123
8
24
156
156
156
213
213
213
106
106
106
32
156
0
32
156
0
32
156
0
32
156
0
32
156
0
32
156
0
32
156
0
106
106
106
213
213
213
213
213
213
213
213
213
213
213
213
213
213
213
213
213
213
213
213
213
213
213
213
213
213
213
213
213
213
106
106
106
32
156
0
32
156
0
32
156
0
32
156
0
32
156
0
106
106
106
213
213
213
213
213
213
213
213
213
213
213
213
213
213
213
213
213
213
213
213
213
213
213
213
213
213
213
213
213
213
0
0
0
106
106
106
32
156
0
32
156
0
32
156
0
32
156
0
32
156
0
106
106
106
213
213
213
213
213
213
213
213
213
213
213
213
213
213
213
213
213
213
213
213
213
213
213
213
213
213
213
0
0
0
0
0
0
106
106
106
32
156
0
32
156
0
32
156
0
32
156
0
32
156
0
106
106
106
213
213
213
213
213
213
213
213
213
213
213
213
213
213
213
213
213
213
213
213
213
213
213
213
213
213
213
74
0
8
74
0
8
106
106
106
32
156
0
32
156
0
32
156
0
32
156
0
32
156
0
106
106
106
213
213
213
213
213
213
213
213
213
213
213
213
213
213
213
213
213
213
213
213
213
213
213
213
213
213
213
123
8
24
123
8
24
106
106
106
32
156
0
32
156
0
32
156
0
32
156
0
32
156
0
106
106
106
246
246
246
213
213
213
213
213
213
246
246
246
213
213
213
213
213
213
246
246
246
246
246
246
213
213
213
213
213
213
164
24
32
106
106
106
32
156
0
32
156
0
32
156
0
32
156
0
32
156
0
106
106
106
246
246
246
246
246
246
246
246
246
246
246
246
246
246
246
246
246
246
246
246
246
246
246
246
246
246
246
106
106
106
106
106
106
106
106
106
32
156
0
32
156
0
32
156
0
32
156
0
32
156
0
106
106
106
246
246
246
246
246
246
246
246
246
246
246
246
246
246
246
246
246
246
246
246
246
246
246
246
213
213
213
246
246
246
246
246
246
106
106
106
106
106
106
32
156
0
32
156
0
32
156
0
32
156
0
106
106
106
246
246
246
213
213
213
246
246
246
246
246
246
246
246
246
246
246
246
213
213
213
246
246
246
156
156
156
213
213
213
246
246
246
106
106
106
106
106
106
32
156
0
32
156
0
32
156
0
32
156
0
106
106
106
213
213
213
213
213
213
246
246
246
246
246
246
246
246
246
213
213
213
213
213
213
213
213
213
246
246
246
106
106
106
213
213
213
106
106
106
106
106
106
32
156
0
32
156
0
32
156
0
32
156
0
32
156
0
106
106
106
213
213
213
213
213
213
213
213
213
213
213
213
213
213
213
106
106
106
106
106
106
213
213
213
213
213
213
106
106
106
213
213
213
106
106
106
32
156
0
32
156
0
32
156
0
32
156
0
32
156
0
32
156
0
106
106
106
106
106
106
106
106
106
106
106
106
106
106
106
32
156
0
32
156
0
106
106
106
106
106
106
106
106
106
106
106
106
32
156
0
32
156
0
32
156
0
32
156
0
32
156
0
32
156
0
32
156
0
32
156
0
32
156
0
32
156
0
32
156
0
32
156
0
32
156
0
32
156
0
32
156
0
32
156
0
32
156
0
32
156
0
32
156
0
32
156
0
32
156
0
32
156
0
32
156
0
32
156
0
32
156
0
32
156
0
32
156
0
32
156
0
32
156
0
32
156
0
32
156
0
32
156
0
32
156
0
32
156
0
32
156
0
32
156
0
32
156
0
32
156
0
32
156
0
