P3
# Created by GIMP version 2.10.32 PNM plug-in
18 24
255
0
128
128
0
128
128
0
128
128
0
128
128
0
128
128
0
128
128
0
128
128
0
128
128
65
65
65
65
65
65
65
65
65
65
65
65
0
128
128
0
128
128
0
128
128
0
128
128
0
128
128
0
128
128
0
128
128
0
128
128
0
128
128
0
128
128
0
128
128
0
128
128
41
41
41
41
41
41
106
106
106
106
106
106
106
106
106
106
106
106
65
65
65
65
65
65
0
128
128
0
128
128
0
128
128
0
128
128
0
128
128
0
128
128
0
128
128
0
128
128
0
128
128
41
41
41
65
65
65
82
82
82
82
82
82
82
82
82
82
82
82
106
106
106
106
106
106
106
106
106
65
65
65
0
128
128
0
128
128
0
128
128
0
128
128
0
128
128
0
128
128
0
128
128
41
41
41
65
65
65
65
65
65
65
65
65
65
65
65
65
65
65
65
65
65
82
82
82
82
82
82
41
41
41
106
106
106
65
65
65
0
128
128
0
128
128
0
128
128
0
128
128
0
128
128
41
41
41
65
65
65
65
65
65
65
65
65
65
65
65
65
65
65
65
65
65
65
65
65
41
41
41
41
41
41
24
24
24
24
24
24
65
65
65
0
128
128
0
128
128
0
128
128
0
128
128
0
128
128
41
41
41
65
65
65
65
65
65
65
65
65
65
65
65
65
65
65
65
65
65
41
41
41
41
41
41
213
213
213
156
156
156
24
24
24
41
41
41
0
128
128
0
128
128
0
128
128
0
128
128
41
41
41
65
65
65
65
65
65
41
41
41
41
41
41
65
65
65
65
65
65
41
41
41
41
41
41
156
156
156
246
255
255
246
255
255
24
24
24
24
24
24
0
128
128
0
128
128
0
128
128
0
128
128
41
41
41
41
41
41
41
41
41
41
41
41
65
65
65
65
65
65
41
41
41
41
41
41
156
156
156
213
213
213
246
255
255
123
123
123
246
255
255
0
128
128
0
128
128
0
128
128
0
128
128
0
128
128
0
128
128
0
128
128
0
128
128
41
41
41
65
65
65
65
65
65
41
41
41
41
41
41
156
156
156
246
255
255
82
82
82
74
0
8
246
255
255
0
128
128
0
128
128
0
128
128
0
128
128
0
128
128
0
128
128
0
128
128
0
128
128
41
41
41
41
41
41
41
41
41
41
41
41
41
41
41
156
156
156
246
255
255
74
0
8
123
8
24
246
255
255
0
128
128
0
128
128
0
128
128
0
128
128
0
128
128
0
128
128
0
128
128
0
128
128
24
24
24
41
41
41
41
41
41
41
41
41
24
24
24
24
24
24
189
189
189
246
255
255
246
255
255
123
123
123
0
128
128
0
128
128
0
128
128
0
128
128
0
128
128
0
128
128
0
128
128
0
128
128
24
24
24
24
24
24
24
24
24
24
24
24
24
24
24
24
24
24
0
0
0
0
0
0
24
24
24
246
255
255
0
128
128
0
128
128
0
128
128
0
128
128
0
128
128
0
128
128
0
128
128
24
24
24
41
41
41
65
65
65
82
82
82
106
106
106
82
82
82
41
41
41
24
24
24
0
0
0
24
24
24
0
128
128
0
128
128
0
128
128
0
128
128
0
128
128
0
128
128
0
128
128
0
128
128
41
41
41
41
41
41
65
65
65
65
65
65
65
65
65
82
82
82
82
82
82
41
41
41
24
24
24
0
128
128
0
128
128
0
128
128
0
128
128
0
128
128
0
128
128
0
128
128
0
128
128
0
128
128
8
32
0
41
41
41
41
41
41
24
24
24
24
24
24
41
41
41
65
65
65
82
82
82
41
41
41
41
41
41
0
128
128
0
128
128
0
128
128
0
128
128
0
128
128
0
128
128
0
128
128
0
128
128
0
128
128
24
24
24
24
24
24
24
24
24
41
41
41
82
82
82
41
41
41
65
65
65
65
65
65
41
41
41
0
128
128
0
128
128
0
128
128
0
128
128
0
128
128
0
128
128
0
128
128
0
128
128
24
24
24
24
24
24
41
41
41
41
41
41
24
24
24
82
82
82
82
82
82
24
24
24
24
24
24
41
41
41
0
128
128
0
128
128
0
128
128
0
128
128
0
128
128
0
128
128
0
128
128
0
128
128
24
24
24
41
41
41
41
41
41
41
41
41
41
41
41
41
41
41
0
0
0
0
0
0
24
24
24
24
24
24
0
128
128
0
128
128
0
128
128
0
128
128
0
128
128
0
128
128
0
128
128
0
128
128
24
24
24
41
41
41
41
41
41
65
65
65
41
41
41
41
41
41
0
0
0
0
0
0
41
41
41
24
24
24
0
128
128
0
128
128
0
128
128
0
128
128
0
128
128
0
128
128
0
128
128
0
128
128
24
24
24
41
41
41
41
41
41
65
65
65
65
65
65
41
41
41
41
41
41
41
41
41
41
41
41
24
24
24
0
128
128
0
128
128
0
128
128
0
128
128
0
128
128
0
128
128
0
128
128
0
128
128
24
24
24
41
41
41
41
41
41
65
65
65
65
65
65
65
65
65
82
82
82
82
82
82
82
82
82
24
24
24
0
128
128
0
128
128
0
128
128
0
128
128
0
128
128
0
128
128
0
128
128
0
128
128
0
128
128
24
24
24
24
24
24
24
24
24
24
24
24
24
24
24
65
65
65
82
82
82
24
24
24
24
24
24
0
128
128
0
128
128
0
128
128
0
128
128
0
128
128
0
128
128
0
128
128
0
128
128
0
128
128
24
24
24
41
41
41
41
41
41
41
41
41
41
41
41
24
24
24
24
24
24
24
24
24
24
24
24
0
128
128
0
128
128
0
128
128
0
128
128
0
128
128
0
128
128
0
128
128
0
128
128
0
128
128
24
24
24
24
24
24
24
24
24
24
24
24
24
24
24
24
24
24
0
128
128
0
128
128
0
128
128
0
128
128
0
128
128
0
128
128
0
128
128
