P3
# Created by GIMP version 2.10.32 PNM plug-in
18 24
255
0
117
117
0
117
117
0
117
117
0
117
117
0
117
117
0
117
117
0
117
117
69
0
0
69
0
0
69
0
0
69
0
0
69
0
0
69
0
0
0
117
117
0
117
117
0
117
117
0
117
117
0
117
117
0
117
117
0
117
117
0
117
117
0
117
117
0
117
117
69
0
0
95
9
0
201
45
0
201
45
0
201
45
0
201
45
0
201
45
0
175
36
0
69
0
0
69
0
0
0
117
117
0
117
117
0
117
117
0
117
117
0
117
117
0
117
117
0
117
117
69
0
0
175
36
0
175
36
0
175
36
0
175
36
0
201
45
0
201
45
0
201
45
0
201
45
0
201
45
0
175
36
0
95
9
0
0
117
117
0
117
117
0
117
117
69
0
0
122
18
0
175
36
0
175
36
0
148
27
0
148
27
0
122
18
0
122
18
0
122
18
0
148
27
0
148
27
0
175
36
0
201
45
0
201
45
0
201
45
0
175
36
0
95
9
0
0
117
117
69
0
0
122
18
0
148
27
0
148
27
0
122
18
0
122
18
0
122
18
0
122
18
0
122
18
0
122
18
0
122
18
0
95
9
0
69
0
0
175
36
0
201
45
0
201
45
0
175
36
0
0
117
117
0
117
117
95
9
0
122
18
0
122
18
0
122
18
0
122
18
0
122
18
0
122
18
0
122
18
0
122
18
0
122
18
0
122
18
0
95
9
0
69
0
0
95
9
0
175
36
0
175
36
0
0
117
117
0
117
117
95
9
0
122
18
0
122
18
0
122
18
0
122
18
0
122
18
0
122
18
0
122
18
0
122
18
0
122
18
0
95
9
0
69
0
0
69
0
0
95
9
0
148
27
0
175
36
0
0
117
117
0
117
117
0
117
117
95
9
0
122
18
0
122
18
0
122
18
0
122
18
0
122
18
0
122
18
0
95
9
0
69
0
0
69
0
0
5
5
5
5
5
5
69
0
0
122
18
0
95
9
0
0
117
117
0
117
117
0
117
117
95
9
0
122
18
0
122
18
0
122
18
0
122
18
0
69
0
0
5
5
5
5
5
5
5
5
5
5
5
5
5
5
5
5
5
5
95
9
0
95
9
0
0
117
117
0
117
117
0
117
117
0
117
117
122
18
0
95
9
0
122
18
0
122
18
0
69
0
0
5
5
5
5
5
5
5
5
5
5
5
5
5
5
5
5
5
5
5
5
5
95
9
0
95
9
0
0
117
117
0
117
117
0
117
117
0
117
117
0
117
117
95
9
0
148
27
0
122
18
0
95
9
0
5
5
5
5
5
5
5
5
5
5
5
5
5
5
5
5
5
5
5
5
5
95
9
0
0
117
117
0
117
117
0
117
117
0
117
117
0
117
117
0
117
117
69
0
0
175
36
0
175
36
0
95
9
0
69
0
0
5
5
5
76
57
49
76
57
49
76
57
49
5
5
5
5
5
5
0
117
117
0
117
117
0
117
117
0
117
117
0
117
117
0
117
117
69
0
0
122
18
0
95
9
0
122
18
0
175
36
0
201
45
0
76
57
49
103
81
61
131
106
73
103
81
61
76
57
49
0
117
117
0
117
117
0
117
117
0
117
117
0
117
117
0
117
117
69
0
0
95
9
0
95
9
0
95
9
0
95
9
0
122
18
0
175
36
0
131
106
73
103
81
61
76
57
49
103
81
61
122
18
0
95
9
0
0
117
117
0
117
117
0
117
117
0
117
117
0
117
117
69
0
0
95
9
0
122
18
0
175
36
0
175
36
0
122
18
0
95
9
0
103
81
61
76
57
49
201
45
0
201
45
0
122
18
0
95
9
0
0
117
117
0
117
117
0
117
117
0
117
117
0
117
117
95
9
0
95
9
0
175
36
0
201
45
0
201
45
0
175
36
0
122
18
0
103
81
61
175
36
0
95
9
0
95
9
0
95
9
0
69
0
0
0
117
117
0
117
117
0
117
117
0
117
117
0
117
117
95
9
0
95
9
0
175
36
0
201
45
0
201
45
0
201
45
0
122
18
0
131
106
73
175
36
0
201
45
0
175
36
0
95
9
0
69
0
0
0
117
117
0
117
117
0
117
117
0
117
117
0
117
117
69
0
0
95
9
0
175
36
0
201
45
0
201
45
0
201
45
0
122
18
0
131
106
73
201
45
0
201
45
0
201
45
0
175
36
0
95
9
0
0
117
117
0
117
117
0
117
117
0
117
117
0
117
117
69
0
0
122
18
0
122
18
0
95
9
0
95
9
0
122
18
0
201
45
0
103
81
61
175
36
0
201
45
0
201
45
0
175
36
0
122
18
0
0
117
117
0
117
117
0
117
117
0
117
117
69
0
0
95
9
0
122
18
0
122
18
0
148
27
0
175
36
0
175
36
0
175
36
0
131
106
73
175
36
0
201
45
0
201
45
0
148
27
0
122
18
0
0
117
117
0
117
117
0
117
117
0
117
117
69
0
0
95
9
0
122
18
0
122
18
0
148
27
0
148
27
0
175
36
0
175
36
0
131
106
73
148
27
0
175
36
0
175
36
0
148
27
0
122
18
0
0
117
117
0
117
117
0
117
117
0
117
117
69
0
0
95
9
0
95
9
0
122
18
0
122
18
0
148
27
0
148
27
0
148
27
0
103
81
61
122
18
0
148
27
0
148
27
0
122
18
0
95
9
0
0
117
117
0
117
117
0
117
117
0
117
117
69
0
0
69
0
0
69
0
0
95
9
0
95
9
0
95
9
0
122
18
0
122
18
0
103
81
61
122
18
0
122
18
0
95
9
0
95
9
0
95
9
0
0
117
117
0
117
117
0
117
117
0
117
117
0
117
117
0
117
117
0
117
117
0
117
117
0
117
117
0
117
117
69
0
0
69
0
0
76
57
49
69
0
0
69
0
0
0
117
117
0
117
117
0
117
117
0
117
117
0
117
117
0
117
117
