P3
# Created by GIMP version 2.10.34 PNM plug-in
18 24
255
33
156
0
33
156
0
33
156
0
33
156
0
33
156
0
33
156
0
33
156
0
33
156
0
33
156
0
33
156
0
33
156
0
33
156
0
33
156
0
33
156
0
33
156
0
33
156
0
33
156
0
33
156
0
33
156
0
33
156
0
33
156
0
33
156
0
33
156
0
33
156
0
33
156
0
33
156
0
33
156
0
33
156
0
33
156
0
33
156
0
33
156
0
33
156
0
33
156
0
33
156
0
33
156
0
33
156
0
33
156
0
33
156
0
33
156
0
33
156
0
33
156
0
33
156
0
33
156
0
33
156
0
33
156
0
33
156
0
33
156
0
33
156
0
33
156
0
33
156
0
33
156
0
33
156
0
33
156
0
33
156
0
33
156
0
33
156
0
33
156
0
33
156
0
33
156
0
33
156
0
33
156
0
33
156
0
33
156
0
33
156
0
33
156
0
33
156
0
33
156
0
33
156
0
33
156
0
33
156
0
33
156
0
33
156
0
33
156
0
33
156
0
33
156
0
33
156
0
33
156
0
33
156
0
33
156
0
33
156
0
33
156
0
33
156
0
33
156
0
33
156
0
33
156
0
33
156
0
33
156
0
33
156
0
33
156
0
33
156
0
33
156
0
33
156
0
33
156
0
33
156
0
33
156
0
33
156
0
33
156
0
33
156
0
33
156
0
33
156
0
33
156
0
33
156
0
33
156
0
33
156
0
33
156
0
33
156
0
33
156
0
33
156
0
33
156
0
33
156
0
33
156
0
33
156
0
33
156
0
33
156
0
33
156
0
33
156
0
33
156
0
33
156
0
33
156
0
33
156
0
33
156
0
33
156
0
33
156
0
33
156
0
33
156
0
33
156
0
33
156
0
33
156
0
33
156
0
33
156
0
33
156
0
33
156
0
33
156
0
33
156
0
33
156
0
33
156
0
33
156
0
33
156
0
33
156
0
33
156
0
33
156
0
33
156
0
33
156
0
33
156
0
33
156
0
33
156
0
33
156
0
33
156
0
33
156
0
33
156
0
33
156
0
33
156
0
33
156
0
33
156
0
33
156
0
33
156
0
33
156
0
33
156
0
33
156
0
33
156
0
33
156
0
33
156
0
33
156
0
33
156
0
33
156
0
33
156
0
33
156
0
33
156
0
33
156
0
33
156
0
33
156
0
33
156
0
33
156
0
33
156
0
33
156
0
33
156
0
33
156
0
33
156
0
33
156
0
33
156
0
33
156
0
33
156
0
33
156
0
33
156
0
33
156
0
33
156
0
33
156
0
33
156
0
33
156
0
33
156
0
33
156
0
33
156
0
33
156
0
33
156
0
33
156
0
33
156
0
33
156
0
33
156
0
33
156
0
33
156
0
33
156
0
33
156
0
33
156
0
41
0
0
33
156
0
33
156
0
33
156
0
33
156
0
33
156
0
33
156
0
33
156
0
33
156
0
33
156
0
33
156
0
33
156
0
33
156
0
33
156
0
33
156
0
33
156
0
33
156
0
41
0
0
99
49
0
41
0
0
33
156
0
33
156
0
33
156
0
33
156
0
33
156
0
33
156
0
33
156
0
33
156
0
33
156
0
33
156
0
33
156
0
33
156
0
33
156
0
41
0
0
41
0
0
41
0
0
255
123
8
41
0
0
66
66
66
66
66
66
41
41
41
41
41
41
66
66
66
66
66
66
41
41
41
66
66
66
33
156
0
33
156
0
33
156
0
33
156
0
41
0
0
255
123
8
255
123
8
255
255
0
255
123
8
41
0
0
123
123
123
107
107
107
123
123
123
123
123
123
107
107
107
123
123
123
156
156
156
189
189
189
41
41
41
33
156
0
33
156
0
33
156
0
74
0
0
255
255
0
255
255
0
255
255
0
255
255
0
41
0
0
206
222
255
206
222
255
255
255
255
255
255
255
206
222
255
206
222
255
255
255
255
82
82
82
41
41
41
33
156
0
33
156
0
33
156
0
33
156
0
41
0
0
41
0
0
33
33
33
255
255
0
41
0
0
41
41
41
41
41
41
41
41
41
41
41
41
41
41
41
41
41
41
41
41
41
41
41
41
33
156
0
33
156
0
33
156
0
33
156
0
33
156
0
33
156
0
33
156
0
41
0
0
255
255
0
41
0
0
33
156
0
33
156
0
33
156
0
33
156
0
33
156
0
33
156
0
33
156
0
33
156
0
33
156
0
33
156
0
33
156
0
33
156
0
33
156
0
33
156
0
33
156
0
33
156
0
41
0
0
33
156
0
33
156
0
33
156
0
33
156
0
33
156
0
33
156
0
33
156
0
33
156
0
33
156
0
33
156
0
33
156
0
33
156
0
33
156
0
33
156
0
33
156
0
33
156
0
33
156
0
33
156
0
33
156
0
33
156
0
33
156
0
33
156
0
33
156
0
33
156
0
33
156
0
33
156
0
33
156
0
33
156
0
33
156
0
33
156
0
33
156
0
33
156
0
33
156
0
33
156
0
33
156
0
33
156
0
33
156
0
33
156
0
33
156
0
33
156
0
33
156
0
33
156
0
33
156
0
33
156
0
33
156
0
33
156
0
33
156
0
33
156
0
33
156
0
33
156
0
33
156
0
33
156
0
33
156
0
33
156
0
33
156
0
33
156
0
33
156
0
33
156
0
33
156
0
33
156
0
33
156
0
33
156
0
33
156
0
33
156
0
33
156
0
33
156
0
33
156
0
33
156
0
33
156
0
33
156
0
33
156
0
33
156
0
33
156
0
33
156
0
33
156
0
33
156
0
33
156
0
33
156
0
33
156
0
33
156
0
33
156
0
33
156
0
33
156
0
33
156
0
33
156
0
33
156
0
33
156
0
33
156
0
33
156
0
33
156
0
33
156
0
33
156
0
33
156
0
33
156
0
33
156
0
33
156
0
33
156
0
33
156
0
33
156
0
33
156
0
33
156
0
33
156
0
