P3
# Created by GIMP version 2.10.32 PNM plug-in
18 24
255
0
117
115
0
117
115
0
117
115
0
117
115
0
117
115
0
117
115
60
49
40
60
49
40
60
49
40
60
49
40
60
49
40
60
49
40
0
117
115
0
117
115
0
117
115
0
117
115
0
117
115
0
117
115
0
117
115
0
117
115
0
117
115
60
49
40
131
109
86
131
109
86
172
152
130
172
152
130
131
109
86
88
74
58
88
74
58
88
74
58
88
74
58
88
74
58
0
117
115
0
117
115
0
117
115
0
117
115
0
117
115
0
117
115
60
49
40
131
109
86
172
152
130
172
152
130
172
152
130
131
109
86
88
74
58
172
152
130
209
198
186
172
152
130
209
198
186
88
74
58
0
117
115
0
117
115
0
117
115
0
117
115
0
117
115
0
117
115
60
49
40
60
49
40
60
49
40
60
49
40
131
109
86
88
74
58
172
152
130
172
152
130
60
49
40
60
49
40
60
49
40
88
74
58
0
117
115
0
117
115
0
117
115
0
117
115
0
117
115
0
117
115
60
49
40
172
152
130
88
74
58
88
74
58
131
109
86
172
152
130
60
49
40
37
0
74
105
94
39
37
0
74
37
0
74
0
117
115
0
117
115
0
117
115
0
117
115
0
117
115
0
117
115
0
117
115
60
49
40
88
74
58
131
109
86
172
152
130
172
152
130
60
49
40
131
109
86
37
0
74
253
253
0
219
219
0
37
0
74
0
117
115
0
117
115
0
117
115
0
117
115
0
117
115
0
117
115
0
117
115
60
49
40
172
152
130
172
152
130
60
49
40
60
49
40
131
109
86
131
109
86
60
49
40
60
49
40
37
0
74
37
0
74
0
117
115
0
117
115
0
117
115
0
117
115
0
117
115
0
117
115
0
117
115
0
117
115
60
49
40
131
109
86
60
49
40
131
109
86
172
152
130
172
152
130
60
49
40
60
49
40
60
49
40
60
49
40
60
49
40
0
117
115
0
117
115
0
117
115
0
117
115
0
117
115
0
117
115
0
117
115
60
49
40
172
152
130
131
109
86
60
49
40
60
49
40
60
49
40
131
109
86
131
109
86
131
109
86
60
49
40
0
117
115
0
117
115
0
117
115
0
117
115
0
117
115
0
117
115
0
117
115
0
117
115
0
117
115
60
49
40
60
49
40
60
49
40
131
109
86
172
152
130
172
152
130
60
49
40
60
49
40
0
117
115
0
117
115
0
117
115
0
117
115
0
117
115
0
117
115
0
117
115
0
117
115
0
117
115
60
49
40
172
152
130
172
152
130
60
49
40
172
152
130
172
152
130
60
49
40
0
117
115
0
117
115
0
117
115
60
49
40
60
49
40
60
49
40
0
117
115
0
117
115
0
117
115
0
117
115
0
117
115
60
49
40
60
49
40
60
49
40
172
152
130
209
198
186
60
49
40
172
152
130
60
49
40
0
117
115
60
49
40
172
152
130
209
198
186
209
198
186
60
49
40
0
117
115
0
117
115
0
117
115
0
117
115
60
49
40
131
109
86
60
49
40
172
152
130
60
49
40
131
109
86
60
49
40
60
49
40
60
49
40
172
152
130
60
49
40
60
49
40
60
49
40
60
49
40
0
117
115
0
117
115
0
117
115
0
117
115
0
117
115
60
49
40
172
152
130
131
109
86
60
49
40
60
49
40
172
152
130
131
109
86
60
49
40
172
152
130
60
49
40
60
49
40
60
49
40
0
117
115
0
117
115
0
117
115
0
117
115
0
117
115
0
117
115
60
49
40
131
109
86
60
49
40
60
49
40
172
152
130
60
49
40
60
49
40
60
49
40
60
49
40
0
117
115
0
117
115
0
117
115
0
117
115
0
117
115
0
117
115
0
117
115
0
117
115
0
117
115
0
117
115
60
49
40
131
109
86
172
152
130
209
198
186
172
152
130
60
49
40
0
117
115
0
117
115
0
117
115
0
117
115
0
117
115
0
117
115
0
117
115
0
117
115
0
117
115
0
117
115
0
117
115
60
49
40
131
109
86
172
152
130
60
49
40
131
109
86
131
109
86
60
49
40
0
117
115
0
117
115
0
117
115
0
117
115
0
117
115
0
117
115
0
117
115
0
117
115
0
117
115
0
117
115
0
117
115
60
49
40
60
49
40
60
49
40
131
109
86
172
152
130
131
109
86
60
49
40
0
117
115
0
117
115
0
117
115
0
117
115
0
117
115
0
117
115
0
117
115
0
117
115
0
117
115
0
117
115
0
117
115
60
49
40
131
109
86
131
109
86
131
109
86
60
49
40
172
152
130
131
109
86
60
49
40
0
117
115
0
117
115
0
117
115
0
117
115
0
117
115
0
117
115
0
117
115
0
117
115
0
117
115
60
49
40
60
49
40
60
49
40
131
109
86
172
152
130
60
49
40
131
109
86
60
49
40
131
109
86
60
49
40
0
117
115
0
117
115
0
117
115
0
117
115
0
117
115
0
117
115
0
117
115
60
49
40
131
109
86
131
109
86
172
152
130
131
109
86
172
152
130
60
49
40
60
49
40
131
109
86
131
109
86
60
49
40
0
117
115
0
117
115
0
117
115
0
117
115
0
117
115
0
117
115
0
117
115
60
49
40
60
49
40
60
49
40
131
109
86
172
152
130
172
152
130
60
49
40
60
49
40
60
49
40
60
49
40
73
65
101
37
0
74
0
117
115
0
117
115
0
117
115
0
117
115
0
117
115
60
49
40
172
152
130
172
152
130
172
152
130
131
109
86
131
109
86
60
49
40
73
65
101
73
65
101
73
65
101
57
46
75
57
46
75
73
65
101
73
65
101
37
0
74
0
117
115
0
117
115
0
117
115
60
49
40
60
49
40
60
49
40
60
49
40
60
49
40
60
49
40
0
117
115
37
0
74
37
0
74
37
0
74
37
0
74
37
0
74
37
0
74
37
0
74
37
0
74
0
117
115
0
117
115
