P3
# Created by GIMP version 2.10.32 PNM plug-in
18 24
255
32
156
0
32
156
0
32
156
0
32
156
0
32
156
0
32
156
0
32
156
0
91
95
85
32
156
0
32
156
0
135
140
129
32
156
0
32
156
0
32
156
0
32
156
0
32
156
0
32
156
0
32
156
0
32
156
0
32
156
0
32
156
0
32
156
0
32
156
0
32
156
0
32
156
0
91
95
85
32
156
0
32
156
0
91
95
85
32
156
0
32
156
0
24
29
19
32
156
0
32
156
0
32
156
0
32
156
0
32
156
0
32
156
0
32
156
0
32
156
0
32
156
0
135
140
129
32
156
0
24
29
19
135
140
129
32
156
0
50
56
45
32
156
0
24
29
19
96
100
92
32
156
0
32
156
0
32
156
0
32
156
0
32
156
0
32
156
0
32
156
0
32
156
0
32
156
0
24
29
19
135
140
129
24
29
19
91
95
85
24
29
19
50
56
45
24
29
19
96
100
92
32
156
0
32
156
0
32
156
0
32
156
0
32
156
0
32
156
0
32
156
0
32
156
0
32
156
0
32
156
0
32
156
0
24
29
19
135
140
129
24
29
19
24
29
19
50
56
45
24
29
19
135
140
129
32
156
0
32
156
0
32
156
0
32
156
0
32
156
0
32
156
0
32
156
0
32
156
0
32
156
0
32
156
0
32
156
0
24
29
19
96
100
92
135
140
129
24
29
19
24
29
19
135
140
129
24
29
19
50
56
45
96
100
92
135
140
129
32
156
0
32
156
0
32
156
0
32
156
0
32
156
0
24
29
19
135
140
129
96
100
92
50
56
45
24
29
19
91
95
85
50
56
45
24
29
19
24
29
19
50
56
45
96
100
92
32
156
0
32
156
0
32
156
0
32
156
0
32
156
0
32
156
0
32
156
0
32
156
0
32
156
0
24
29
19
24
29
19
24
29
19
50
56
45
24
29
19
24
29
19
50
56
45
96
100
92
32
156
0
32
156
0
32
156
0
32
156
0
32
156
0
32
156
0
32
156
0
32
156
0
32
156
0
32
156
0
32
156
0
82
74
8
82
74
8
82
74
8
130
125
104
130
125
104
130
125
104
130
125
104
82
74
8
32
156
0
32
156
0
32
156
0
32
156
0
32
156
0
32
156
0
32
156
0
32
156
0
32
156
0
82
74
8
82
74
8
130
125
104
130
125
104
187
182
154
187
182
154
187
182
154
187
182
154
130
125
104
82
74
8
32
156
0
32
156
0
32
156
0
32
156
0
32
156
0
32
156
0
32
156
0
32
156
0
82
74
8
82
74
8
130
125
104
187
182
154
187
182
154
234
228
203
234
228
203
234
228
203
187
182
154
82
74
8
32
156
0
32
156
0
32
156
0
32
156
0
32
156
0
32
156
0
32
156
0
32
156
0
82
74
8
130
125
104
130
125
104
187
182
154
234
228
203
234
228
203
234
228
203
234
228
203
234
228
203
82
74
8
32
156
0
32
156
0
32
156
0
32
156
0
32
156
0
32
156
0
32
156
0
32
156
0
82
74
8
130
125
104
130
125
104
187
182
154
234
228
203
160
154
127
160
154
127
160
154
127
213
207
179
82
74
8
32
156
0
32
156
0
32
156
0
32
156
0
32
156
0
32
156
0
32
156
0
82
74
8
82
74
8
130
125
104
130
125
104
187
182
154
234
228
203
234
228
203
234
228
203
234
228
203
234
228
203
82
74
8
32
156
0
32
156
0
32
156
0
32
156
0
32
156
0
32
156
0
32
156
0
82
74
8
82
74
8
82
74
8
130
125
104
187
182
154
234
228
203
234
228
203
187
182
154
187
182
154
234
228
203
82
74
8
32
156
0
32
156
0
32
156
0
32
156
0
32
156
0
32
156
0
32
156
0
82
74
8
82
74
8
82
74
8
130
125
104
187
182
154
234
228
203
187
182
154
234
228
203
82
74
8
187
182
154
82
74
8
32
156
0
32
156
0
32
156
0
32
156
0
32
156
0
32
156
0
32
156
0
82
74
8
32
156
0
82
74
8
130
125
104
187
182
154
234
228
203
82
74
8
234
228
203
234
228
203
82
74
8
32
156
0
32
156
0
32
156
0
32
156
0
32
156
0
32
156
0
32
156
0
32
156
0
32
156
0
32
156
0
82
74
8
130
125
104
187
182
154
234
228
203
234
228
203
82
74
8
234
228
203
82
74
8
32
156
0
32
156
0
32
156
0
32
156
0
32
156
0
32
156
0
32
156
0
32
156
0
32
156
0
32
156
0
82
74
8
130
125
104
187
182
154
234
228
203
234
228
203
82
74
8
187
182
154
82
74
8
32
156
0
32
156
0
32
156
0
32
156
0
32
156
0
32
156
0
32
156
0
32
156
0
32
156
0
32
156
0
82
74
8
187
182
154
234
228
203
234
228
203
187
182
154
187
182
154
82
74
8
82
74
8
32
156
0
32
156
0
32
156
0
32
156
0
32
156
0
32
156
0
32
156
0
32
156
0
32
156
0
82
74
8
130
125
104
234
228
203
234
228
203
187
182
154
130
125
104
82
74
8
82
74
8
82
74
8
32
156
0
32
156
0
32
156
0
32
156
0
32
156
0
32
156
0
32
156
0
32
156
0
32
156
0
82
74
8
187
182
154
187
182
154
130
125
104
130
125
104
82
74
8
82
74
8
82
74
8
82
74
8
32
156
0
32
156
0
32
156
0
32
156
0
32
156
0
32
156
0
32
156
0
32
156
0
82
74
8
130
125
104
130
125
104
130
125
104
82
74
8
82
74
8
32
156
0
32
156
0
82
74
8
82
74
8
32
156
0
32
156
0
32
156
0
32
156
0
32
156
0
32
156
0
32
156
0
32
156
0
82
74
8
82
74
8
82
74
8
82
74
8
32
156
0
32
156
0
32
156
0
32
156
0
32
156
0
32
156
0
32
156
0
32
156
0
32
156
0
32
156
0
