P3
# Created by GIMP version 2.10.32 PNM plug-in
18 24
255
4
130
132
4
130
132
4
130
132
76
74
76
20
18
20
20
18
20
76
74
76
76
74
76
4
130
132
4
130
132
4
130
132
4
130
132
4
130
132
4
130
132
4
130
132
4
130
132
4
130
132
4
130
132
4
130
132
4
130
132
4
130
132
4
130
132
76
74
76
76
74
76
76
74
76
20
18
20
20
18
20
76
74
76
4
130
132
4
130
132
4
130
132
4
130
132
4
130
132
4
130
132
4
130
132
4
130
132
4
130
132
4
130
132
76
74
76
20
18
20
20
18
20
20
18
20
20
18
20
20
18
20
76
74
76
20
18
20
20
18
20
76
74
76
76
74
76
4
130
132
4
130
132
4
130
132
4
130
132
4
130
132
4
130
132
4
130
132
4
130
132
4
130
132
4
130
132
20
18
20
20
18
20
20
18
20
20
18
20
20
18
20
20
18
20
20
18
20
20
18
20
20
18
20
4
130
132
4
130
132
4
130
132
4
130
132
4
130
132
4
130
132
4
130
132
4
130
132
76
74
76
20
18
20
20
18
20
20
18
20
20
18
20
20
18
20
20
18
20
140
26
20
20
18
20
20
18
20
76
74
76
4
130
132
4
130
132
4
130
132
4
130
132
4
130
132
4
130
132
76
74
76
20
18
20
20
18
20
20
18
20
20
18
20
20
18
20
20
18
20
20
18
20
212
50
76
212
50
76
20
18
20
76
74
76
4
130
132
4
130
132
4
130
132
4
130
132
4
130
132
76
74
76
20
18
20
20
18
20
20
18
20
20
18
20
20
18
20
20
18
20
20
18
20
20
18
20
140
26
20
212
50
76
228
106
164
20
18
20
76
74
76
4
130
132
4
130
132
4
130
132
4
130
132
4
130
132
76
74
76
20
18
20
20
18
20
20
18
20
20
18
20
212
50
76
228
106
164
212
50
76
140
26
20
20
18
20
20
18
20
20
18
20
20
18
20
76
74
76
4
130
132
4
130
132
4
130
132
4
130
132
76
74
76
20
18
20
20
18
20
20
18
20
20
18
20
20
18
20
20
18
20
140
26
20
228
106
164
228
106
164
228
106
164
76
74
76
4
130
132
4
130
132
4
130
132
4
130
132
4
130
132
76
74
76
20
18
20
20
18
20
20
18
20
20
18
20
20
18
20
20
18
20
20
18
20
20
18
20
20
18
20
20
18
20
76
74
76
4
130
132
4
130
132
4
130
132
4
130
132
4
130
132
4
130
132
76
74
76
20
18
20
20
18
20
20
18
20
20
18
20
20
18
20
20
18
20
76
74
76
76
74
76
76
74
76
76
74
76
4
130
132
4
130
132
4
130
132
4
130
132
4
130
132
4
130
132
76
74
76
20
18
20
20
18
20
20
18
20
20
18
20
20
18
20
20
18
20
20
18
20
20
18
20
76
74
76
20
18
20
76
74
76
20
18
20
76
74
76
4
130
132
4
130
132
4
130
132
4
130
132
76
74
76
20
18
20
20
18
20
76
74
76
20
18
20
20
18
20
76
74
76
20
18
20
20
18
20
20
18
20
76
74
76
76
74
76
20
18
20
76
74
76
4
130
132
4
130
132
4
130
132
4
130
132
76
74
76
20
18
20
20
18
20
76
74
76
20
18
20
20
18
20
20
18
20
76
74
76
76
74
76
76
74
76
76
74
76
4
130
132
4
130
132
4
130
132
4
130
132
4
130
132
4
130
132
4
130
132
76
74
76
20
18
20
20
18
20
20
18
20
76
74
76
20
18
20
20
18
20
20
18
20
20
18
20
20
18
20
20
18
20
76
74
76
4
130
132
4
130
132
4
130
132
4
130
132
4
130
132
4
130
132
4
130
132
4
130
132
76
74
76
76
74
76
20
18
20
76
74
76
76
74
76
20
18
20
76
74
76
20
18
20
76
74
76
20
18
20
76
74
76
4
130
132
4
130
132
4
130
132
4
130
132
4
130
132
4
130
132
4
130
132
4
130
132
4
130
132
76
74
76
76
74
76
76
74
76
20
18
20
76
74
76
20
18
20
76
74
76
76
74
76
76
74
76
4
130
132
4
130
132
4
130
132
4
130
132
4
130
132
4
130
132
4
130
132
4
130
132
4
130
132
4
130
132
4
130
132
20
18
20
76
74
76
20
18
20
20
18
20
20
18
20
20
18
20
76
74
76
4
130
132
4
130
132
4
130
132
4
130
132
4
130
132
4
130
132
4
130
132
4
130
132
4
130
132
76
74
76
20
18
20
20
18
20
20
18
20
20
18
20
20
18
20
20
18
20
76
74
76
4
130
132
4
130
132
4
130
132
4
130
132
4
130
132
4
130
132
4
130
132
4
130
132
4
130
132
4
130
132
20
18
20
76
74
76
20
18
20
20
18
20
20
18
20
20
18
20
20
18
20
20
18
20
76
74
76
4
130
132
4
130
132
4
130
132
4
130
132
4
130
132
4
130
132
20
18
20
20
18
20
20
18
20
20
18
20
20
18
20
20
18
20
20
18
20
20
18
20
76
74
76
76
74
76
20
18
20
20
18
20
20
18
20
20
18
20
4
130
132
4
130
132
4
130
132
20
18
20
20
18
20
20
18
20
20
18
20
20
18
20
20
18
20
20
18
20
20
18
20
20
18
20
20
18
20
20
18
20
20
18
20
20
18
20
20
18
20
20
18
20
20
18
20
4
130
132
4
130
132
20
18
20
20
18
20
20
18
20
20
18
20
20
18
20
20
18
20
20
18
20
20
18
20
20
18
20
20
18
20
20
18
20
20
18
20
20
18
20
20
18
20
20
18
20
20
18
20
4
130
132
4
130
132
4
130
132
4
130
132
4
130
132
4
130
132
20
18
20
20
18
20
20
18
20
20
18
20
20
18
20
20
18
20
20
18
20
20
18
20
4
130
132
4
130
132
4
130
132
4
130
132
4
130
132
