P3
# Created by GIMP version 2.10.32 PNM plug-in
18 24
255
32
156
0
32
156
0
32
156
0
32
156
0
32
156
0
32
156
0
32
156
0
32
156
0
32
156
0
32
156
0
32
156
0
32
156
0
32
156
0
32
156
0
32
156
0
32
156
0
32
156
0
32
156
0
32
156
0
32
156
0
32
156
0
32
156
0
32
156
0
32
156
0
32
156
0
32
156
0
32
156
0
32
156
0
32
156
0
32
156
0
32
156
0
32
156
0
32
156
0
32
156
0
32
156
0
32
156
0
32
156
0
32
156
0
32
156
0
32
156
0
32
156
0
32
156
0
32
156
0
32
156
0
32
156
0
32
156
0
32
156
0
49
24
0
49
24
0
49
24
0
49
24
0
49
24
0
32
156
0
32
156
0
32
156
0
32
156
0
32
156
0
32
156
0
32
156
0
32
156
0
32
156
0
32
156
0
32
156
0
32
156
0
49
24
0
156
156
156
213
213
213
213
213
213
213
213
213
156
156
156
49
24
0
32
156
0
32
156
0
32
156
0
32
156
0
32
156
0
32
156
0
32
156
0
32
156
0
32
156
0
32
156
0
49
24
0
156
156
156
246
255
255
246
255
255
156
156
156
246
255
255
246
255
255
49
24
0
32
156
0
32
156
0
32
156
0
32
156
0
32
156
0
32
156
0
32
156
0
32
156
0
32
156
0
32
156
0
49
24
0
189
189
189
213
213
213
156
156
156
213
213
213
246
255
255
123
123
123
246
255
255
49
24
0
32
156
0
32
156
0
32
156
0
32
156
0
32
156
0
32
156
0
32
156
0
32
156
0
32
156
0
49
24
0
123
123
123
189
189
189
156
156
156
246
255
255
82
82
82
0
0
0
246
255
255
49
24
0
32
156
0
32
156
0
32
156
0
32
156
0
32
156
0
32
156
0
32
156
0
32
156
0
32
156
0
32
156
0
49
24
0
49
24
0
156
156
156
246
255
255
0
0
0
0
0
0
246
255
255
49
24
0
32
156
0
32
156
0
32
156
0
32
156
0
32
156
0
32
156
0
32
156
0
32
156
0
32
156
0
32
156
0
32
156
0
0
0
0
49
24
0
189
189
189
246
255
255
246
255
255
123
123
123
49
24
0
32
156
0
32
156
0
32
156
0
32
156
0
32
156
0
32
156
0
32
156
0
32
156
0
49
24
0
49
24
0
49
24
0
123
123
123
0
0
0
49
24
0
0
0
0
49
24
0
246
255
255
49
24
0
32
156
0
32
156
0
32
156
0
32
156
0
32
156
0
32
156
0
32
156
0
49
24
0
189
189
189
246
255
255
49
24
0
49
24
0
49
24
0
156
156
156
0
0
0
0
0
0
49
24
0
32
156
0
32
156
0
32
156
0
32
156
0
32
156
0
32
156
0
32
156
0
49
24
0
49
24
0
246
255
255
49
24
0
246
255
255
0
0
0
49
24
0
246
255
255
49
24
0
32
156
0
32
156
0
32
156
0
32
156
0
32
156
0
32
156
0
32
156
0
32
156
0
49
24
0
49
24
0
246
255
255
49
24
0
49
24
0
49
24
0
32
156
0
49
24
0
156
156
156
246
255
255
49
24
0
32
156
0
32
156
0
32
156
0
32
156
0
32
156
0
32
156
0
49
24
0
123
123
123
49
24
0
246
255
255
49
24
0
246
255
255
49
24
0
32
156
0
32
156
0
49
24
0
49
24
0
32
156
0
32
156
0
32
156
0
32
156
0
32
156
0
32
156
0
32
156
0
49
24
0
49
24
0
255
82
90
255
82
90
49
24
0
49
24
0
32
156
0
32
156
0
32
156
0
32
156
0
32
156
0
32
156
0
32
156
0
32
156
0
32
156
0
32
156
0
32
156
0
49
24
0
189
189
189
49
24
0
123
41
16
123
41
16
164
74
41
49
24
0
32
156
0
32
156
0
32
156
0
32
156
0
32
156
0
32
156
0
32
156
0
32
156
0
32
156
0
32
156
0
32
156
0
49
24
0
189
189
189
49
24
0
49
24
0
205
115
57
205
115
57
49
24
0
32
156
0
32
156
0
32
156
0
32
156
0
32
156
0
32
156
0
32
156
0
32
156
0
32
156
0
32
156
0
32
156
0
32
156
0
49
24
0
213
213
213
82
82
82
49
24
0
49
24
0
49
24
0
49
24
0
32
156
0
32
156
0
32
156
0
32
156
0
32
156
0
32
156
0
32
156
0
32
156
0
32
156
0
32
156
0
49
24
0
49
24
0
49
24
0
49
24
0
246
255
255
49
24
0
156
156
156
213
213
213
49
24
0
32
156
0
32
156
0
32
156
0
32
156
0
32
156
0
32
156
0
32
156
0
32
156
0
49
24
0
123
41
16
255
82
90
213
213
213
246
255
255
49
24
0
164
24
32
230
41
49
49
24
0
49
24
0
32
156
0
32
156
0
32
156
0
32
156
0
32
156
0
32
156
0
32
156
0
32
156
0
49
24
0
164
74
41
255
82
90
49
24
0
49
24
0
49
24
0
123
41
16
123
41
16
164
74
41
164
74
41
49
24
0
32
156
0
32
156
0
32
156
0
32
156
0
32
156
0
32
156
0
32
156
0
49
24
0
164
74
41
164
74
41
205
115
57
238
156
123
49
24
0
49
24
0
49
24
0
49
24
0
49
24
0
32
156
0
32
156
0
32
156
0
32
156
0
32
156
0
32
156
0
32
156
0
32
156
0
32
156
0
49
24
0
49
24
0
49
24
0
49
24
0
49
24
0
32
156
0
32
156
0
32
156
0
32
156
0
32
156
0
32
156
0
32
156
0
32
156
0
32
156
0
32
156
0
32
156
0
32
156
0
32
156
0
32
156
0
32
156
0
32
156
0
32
156
0
32
156
0
32
156
0
32
156
0
32
156
0
32
156
0
32
156
0
32
156
0
32
156
0
32
156
0
32
156
0
32
156
0
