P3
# Created by GIMP version 2.10.32 PNM plug-in
18 24
255
0
128
128
0
128
128
0
128
128
0
128
128
0
128
128
0
128
128
0
128
128
0
128
128
0
128
128
0
128
128
0
128
128
0
128
128
0
128
128
0
128
128
0
128
128
0
128
128
0
128
128
0
128
128
0
128
128
0
128
128
0
128
128
0
128
128
0
128
128
0
128
128
0
128
128
0
128
128
0
128
128
0
128
128
0
128
128
0
128
128
0
128
128
0
128
128
0
128
128
0
128
128
0
128
128
0
128
128
0
128
128
0
128
128
0
128
128
0
128
128
0
128
128
0
128
128
0
128
128
0
128
128
0
128
128
0
128
128
0
128
128
0
128
128
0
128
128
0
128
128
0
128
128
0
128
128
0
128
128
0
128
128
0
128
128
0
128
128
0
128
128
0
128
128
0
128
128
0
128
128
0
128
128
0
128
128
0
128
128
0
128
128
0
128
128
0
128
128
0
128
128
0
128
128
0
128
128
0
128
128
0
128
128
0
128
128
0
128
128
0
128
128
0
128
128
0
128
128
0
128
128
0
128
128
0
128
128
0
128
128
0
128
128
0
128
128
0
128
128
0
128
128
0
128
128
0
128
128
0
128
128
0
128
128
0
128
128
0
128
128
0
128
128
0
128
128
0
128
128
0
128
128
0
128
128
0
128
128
0
128
128
0
128
128
0
128
128
0
128
128
0
128
128
0
128
128
0
128
128
0
128
128
0
128
128
0
128
128
0
128
128
0
128
128
0
128
128
0
128
128
0
128
128
0
128
128
0
128
128
0
128
128
0
128
128
0
128
128
0
128
128
0
128
128
0
128
128
0
128
128
0
128
128
0
128
128
0
128
128
0
128
128
0
128
128
0
128
128
0
128
128
0
128
128
0
128
128
0
128
128
0
128
128
0
128
128
0
128
128
0
128
128
0
128
128
0
128
128
0
128
128
0
128
128
0
128
128
0
128
128
0
128
128
0
128
128
0
128
128
0
128
128
0
128
128
0
128
128
0
128
128
0
128
128
0
128
128
0
128
128
0
128
128
0
128
128
0
128
128
0
128
128
0
128
128
0
128
128
0
128
128
0
128
128
0
128
128
0
128
128
0
128
128
0
128
128
0
128
128
0
128
128
0
128
128
0
128
128
0
128
128
0
128
128
0
128
128
0
128
128
0
128
128
0
128
128
0
128
128
0
128
128
0
128
128
0
128
128
0
128
128
0
128
128
0
128
128
0
128
128
0
128
128
0
128
128
0
128
128
0
128
128
0
128
128
0
128
128
0
128
128
0
128
128
0
128
128
0
128
128
0
128
128
0
128
128
53
32
53
170
134
219
170
134
219
0
128
128
0
128
128
0
128
128
0
128
128
0
128
128
0
128
128
0
128
128
0
128
128
0
128
128
0
128
128
0
128
128
0
128
128
0
128
128
0
128
128
53
32
53
170
134
219
192
163
231
192
163
231
170
134
219
0
128
128
0
128
128
0
128
128
0
128
128
0
128
128
0
128
128
0
128
128
0
128
128
0
128
128
0
128
128
0
128
128
0
128
128
0
128
128
53
32
53
170
134
219
192
163
231
175
36
0
192
163
231
73
60
85
0
128
128
0
128
128
0
128
128
0
128
128
0
128
128
0
128
128
0
128
128
0
128
128
0
128
128
0
128
128
0
128
128
0
128
128
53
32
53
73
60
85
170
134
219
170
134
219
170
134
219
73
60
85
0
128
128
0
128
128
0
128
128
0
128
128
0
128
128
0
128
128
0
128
128
0
128
128
0
128
128
0
128
128
0
128
128
53
32
53
73
60
85
73
60
85
162
77
28
53
32
53
53
32
53
228
54
0
0
128
128
0
128
128
53
32
53
0
128
128
0
128
128
53
32
53
53
32
53
53
32
53
53
32
53
0
128
128
0
128
128
53
32
53
73
60
85
162
77
28
209
143
13
162
77
28
0
128
128
0
128
128
228
54
0
0
128
128
53
32
53
0
128
128
53
32
53
73
60
85
138
110
175
138
110
175
73
60
85
53
32
53
0
128
128
53
32
53
73
60
85
162
77
28
162
111
26
162
77
28
0
128
128
0
128
128
0
128
128
0
27
11
53
32
53
53
32
53
73
60
85
53
32
53
73
60
85
138
110
175
138
110
175
53
32
53
53
32
53
73
60
85
73
60
85
162
111
26
209
143
13
162
77
28
0
128
128
0
128
128
0
128
128
0
128
128
0
27
11
73
60
85
53
32
53
0
27
11
53
32
53
73
60
85
138
110
175
138
110
175
53
32
53
73
60
85
73
60
85
162
111
26
162
111
26
162
77
28
0
128
128
0
128
128
0
128
128
0
128
128
0
128
128
0
27
11
0
27
11
0
128
128
0
27
11
53
32
53
138
110
175
138
110
175
73
60
85
73
60
85
73
60
85
209
143
13
162
77
28
0
27
11
0
128
128
0
128
128
0
128
128
0
128
128
0
128
128
0
128
128
0
128
128
0
128
128
0
128
128
0
27
11
53
32
53
73
60
85
73
60
85
162
111
26
209
143
13
162
77
28
0
27
11
0
128
128
0
128
128
0
128
128
0
128
128
0
128
128
0
128
128
0
128
128
0
128
128
0
128
128
0
128
128
0
128
128
0
27
11
0
27
11
0
27
11
162
77
28
0
27
11
0
27
11
0
128
128
0
128
128
0
128
128
0
128
128
0
128
128
0
128
128
0
128
128
0
128
128
0
128
128
0
128
128
0
128
128
0
128
128
0
128
128
0
128
128
0
128
128
0
128
128
0
128
128
0
128
128
0
128
128
0
128
128
0
128
128
0
128
128
0
128
128
0
128
128
0
128
128
0
128
128
0
128
128
0
128
128
0
128
128
0
128
128
0
128
128
0
128
128
0
128
128
0
128
128
0
128
128
0
128
128
0
128
128
0
128
128
0
128
128
0
128
128
0
128
128
