P3
# Created by GIMP version 2.10.34 PNM plug-in
18 24
255
99
156
0
99
156
0
99
156
0
99
156
0
99
156
0
99
156
0
99
156
0
99
156
0
99
156
0
99
156
0
99
156
0
99
156
0
99
156
0
99
156
0
99
156
0
99
156
0
99
156
0
99
156
0
99
156
0
99
156
0
99
156
0
99
156
0
99
156
0
99
156
0
99
156
0
99
156
0
99
156
0
99
156
0
99
156
0
99
156
0
99
156
0
99
156
0
99
156
0
99
156
0
99
156
0
99
156
0
99
156
0
99
156
0
99
156
0
99
156
0
99
156
0
99
156
0
99
156
0
99
156
0
99
156
0
99
156
0
99
156
0
99
156
0
99
156
0
99
156
0
99
156
0
99
156
0
99
156
0
99
156
0
99
156
0
99
156
0
99
156
0
99
156
0
99
156
0
99
156
0
99
156
0
99
156
0
99
156
0
99
156
0
99
156
0
99
156
0
99
156
0
99
156
0
99
156
0
99
156
0
99
156
0
99
156
0
99
156
0
99
156
0
99
156
0
99
156
0
99
156
0
99
156
0
99
156
0
99
156
0
99
156
0
99
156
0
99
156
0
99
156
0
99
156
0
99
156
0
99
156
0
99
156
0
99
156
0
99
156
0
99
156
0
99
156
0
99
156
0
99
156
0
99
156
0
99
156
0
99
156
0
99
156
0
99
156
0
99
156
0
99
156
0
99
156
0
99
156
0
99
156
0
99
156
0
99
156
0
99
156
0
99
156
0
99
156
0
99
156
0
99
156
0
99
156
0
99
156
0
99
156
0
99
156
0
99
156
0
99
156
0
99
156
0
99
156
0
99
156
0
99
156
0
99
156
0
99
156
0
99
156
0
99
156
0
99
156
0
99
156
0
99
156
0
99
156
0
99
156
0
99
156
0
33
41
49
33
41
49
99
156
0
99
156
0
99
156
0
99
156
0
99
156
0
99
156
0
99
156
0
99
156
0
99
156
0
99
156
0
99
156
0
99
156
0
99
156
0
99
156
0
99
156
0
99
156
0
33
41
49
239
247
255
73
73
74
99
156
0
99
156
0
99
156
0
99
156
0
99
156
0
99
156
0
99
156
0
99
156
0
99
156
0
99
156
0
99
156
0
99
156
0
99
156
0
99
156
0
99
156
0
33
41
49
189
198
206
140
140
148
73
73
74
99
156
0
99
156
0
99
156
0
99
156
0
99
156
0
99
156
0
99
156
0
99
156
0
99
156
0
99
156
0
99
156
0
99
156
0
99
156
0
99
156
0
33
41
49
189
198
206
73
73
74
140
140
148
73
73
74
99
156
0
99
156
0
99
156
0
99
156
0
99
156
0
99
156
0
99
156
0
99
156
0
99
156
0
99
156
0
99
156
0
99
156
0
99
156
0
33
41
49
189
198
206
73
73
74
73
73
74
140
140
148
73
73
74
33
41
49
33
41
49
33
41
49
33
41
49
33
41
49
33
41
49
99
156
0
99
156
0
99
156
0
99
156
0
99
156
0
99
156
0
33
41
49
140
140
148
33
41
49
73
73
74
73
73
74
140
140
148
140
140
148
189
198
206
189
198
206
189
198
206
239
247
255
33
41
49
99
156
0
99
156
0
99
156
0
99
156
0
99
156
0
99
156
0
73
73
74
140
140
148
33
41
49
33
41
49
33
41
49
33
41
49
33
41
49
73
73
74
73
73
74
140
140
148
73
73
74
99
156
0
99
156
0
99
156
0
99
156
0
99
156
0
99
156
0
73
73
74
140
140
148
73
73
74
33
41
49
4
4
4
4
4
4
33
41
49
73
73
74
73
73
74
140
140
148
73
73
74
99
156
0
99
156
0
99
156
0
99
156
0
99
156
0
99
156
0
73
73
74
140
140
148
73
73
74
73
73
74
33
41
49
4
4
4
4
4
4
33
41
49
73
73
74
140
140
148
73
73
74
99
156
0
99
156
0
99
156
0
99
156
0
99
156
0
99
156
0
73
73
74
140
140
148
73
73
74
73
73
74
33
41
49
33
41
49
33
41
49
33
41
49
33
41
49
140
140
148
73
73
74
99
156
0
99
156
0
99
156
0
99
156
0
99
156
0
99
156
0
33
41
49
239
247
255
189
198
206
189
198
206
189
198
206
140
140
148
140
140
148
73
73
74
73
73
74
33
41
49
140
140
148
33
41
49
99
156
0
99
156
0
99
156
0
99
156
0
99
156
0
99
156
0
33
41
49
33
41
49
33
41
49
33
41
49
33
41
49
33
41
49
73
73
74
140
140
148
73
73
74
73
73
74
189
198
206
33
41
49
99
156
0
99
156
0
99
156
0
99
156
0
99
156
0
99
156
0
99
156
0
99
156
0
99
156
0
99
156
0
99
156
0
99
156
0
99
156
0
73
73
74
140
140
148
73
73
74
189
198
206
33
41
49
99
156
0
99
156
0
99
156
0
99
156
0
99
156
0
99
156
0
99
156
0
99
156
0
99
156
0
99
156
0
99
156
0
99
156
0
99
156
0
99
156
0
73
73
74
140
140
148
189
198
206
33
41
49
99
156
0
99
156
0
99
156
0
99
156
0
99
156
0
99
156
0
99
156
0
99
156
0
99
156
0
99
156
0
99
156
0
99
156
0
99
156
0
99
156
0
99
156
0
73
73
74
239
247
255
33
41
49
99
156
0
99
156
0
99
156
0
99
156
0
99
156
0
99
156
0
99
156
0
99
156
0
99
156
0
99
156
0
99
156
0
99
156
0
99
156
0
99
156
0
99
156
0
99
156
0
33
41
49
33
41
49
99
156
0
99
156
0
99
156
0
99
156
0
99
156
0
99
156
0
99
156
0
99
156
0
99
156
0
99
156
0
99
156
0
99
156
0
99
156
0
99
156
0
99
156
0
99
156
0
99
156
0
99
156
0
99
156
0
99
156
0
99
156
0
99
156
0
99
156
0
