P3
# Created by GIMP version 2.10.34 PNM plug-in
18 24
255
255
0
255
255
0
255
255
0
255
255
0
255
255
0
255
255
0
255
255
0
255
255
0
255
255
0
255
255
0
255
255
0
255
255
0
255
255
0
255
255
0
255
255
0
255
255
0
255
255
0
255
255
0
255
255
0
255
255
0
255
255
0
255
255
0
255
255
0
255
255
0
255
255
0
255
255
0
255
255
0
255
255
0
255
255
0
255
255
0
255
255
0
255
255
0
255
255
0
255
255
0
255
255
0
255
255
0
255
255
0
255
255
0
255
255
0
255
255
0
255
255
0
255
255
0
255
255
0
255
255
0
255
255
0
255
255
0
255
255
0
255
255
0
255
255
0
255
255
0
255
255
0
255
255
0
255
255
0
255
255
0
255
255
0
255
255
0
255
255
0
255
255
0
255
255
0
255
255
0
255
255
0
255
255
0
255
255
0
255
255
0
255
255
0
255
255
0
255
255
0
255
255
0
255
255
0
255
255
0
255
255
0
255
255
0
255
255
0
255
255
0
255
255
0
255
255
0
255
255
0
255
255
0
255
255
0
255
255
0
255
255
0
255
255
0
255
255
0
255
255
0
255
255
0
255
255
0
255
255
0
255
255
0
255
255
0
255
255
0
255
255
0
255
255
0
255
255
0
255
255
0
255
255
0
255
255
0
255
255
0
255
255
0
255
255
0
255
255
0
255
255
0
255
255
0
255
255
0
255
255
0
255
255
0
255
255
0
255
255
0
255
255
0
255
255
0
255
255
0
255
255
0
255
255
0
255
255
0
255
255
0
255
255
0
255
255
0
255
255
0
255
255
0
255
255
0
255
255
0
255
255
0
255
255
0
255
255
0
255
255
0
255
255
0
255
255
0
255
255
0
255
255
0
255
255
0
255
255
0
255
255
0
255
255
0
255
255
0
255
255
0
255
255
0
255
255
0
255
255
0
255
255
0
255
255
0
255
255
0
255
255
0
255
255
0
255
255
0
255
255
0
255
255
0
255
255
0
255
255
0
255
255
0
255
255
0
255
255
0
255
255
0
255
255
0
255
255
0
255
255
0
255
255
0
255
255
0
255
255
0
255
255
0
255
255
0
255
255
0
255
255
0
255
255
0
255
255
0
255
255
0
255
255
0
255
255
0
255
255
0
255
255
0
255
255
0
255
255
0
255
255
0
255
255
0
255
255
0
255
255
0
255
255
0
255
255
0
255
255
0
255
255
0
255
255
0
255
255
0
255
255
0
255
255
0
255
255
0
255
255
0
255
255
0
255
255
0
255
255
0
255
255
0
255
255
0
255
255
0
255
96
248
255
96
248
255
63
176
255
63
176
255
255
0
255
255
0
255
255
0
255
255
0
255
255
0
255
255
0
255
255
0
255
255
0
255
255
0
255
255
0
255
255
0
255
47
96
224
47
96
224
255
0
255
255
0
255
255
0
255
255
0
255
63
176
255
63
176
255
255
0
255
255
0
255
255
0
255
255
0
255
255
0
255
255
0
255
255
0
255
255
0
255
255
0
255
63
176
255
255
0
255
255
0
255
32
16
160
32
16
160
32
16
160
32
16
160
47
96
224
47
96
224
255
0
255
255
0
255
255
0
255
255
0
255
255
0
255
255
0
255
255
0
255
255
0
255
63
176
255
255
0
255
32
16
160
32
16
160
32
16
160
32
16
160
32
16
160
32
16
160
255
0
255
47
96
224
255
0
255
255
0
255
255
0
255
255
0
255
255
0
255
255
0
255
255
0
255
96
248
255
255
0
255
32
16
160
32
16
160
32
16
160
255
0
255
255
0
255
255
0
255
255
0
255
255
0
255
32
16
160
255
0
255
255
0
255
255
0
255
255
0
255
255
0
255
255
0
255
255
0
255
96
248
255
255
0
255
32
16
160
32
16
160
255
0
255
255
0
255
32
16
160
255
0
255
255
0
255
96
248
255
47
96
224
255
0
255
255
0
255
255
0
255
255
0
255
255
0
255
255
0
255
255
0
255
255
0
255
32
16
160
32
16
160
255
0
255
255
0
255
32
16
160
96
248
255
96
248
255
96
248
255
63
176
255
255
0
255
255
0
255
255
0
255
255
0
255
255
0
255
255
0
255
255
0
255
255
0
255
255
0
255
32
16
160
32
16
160
255
0
255
96
248
255
96
248
255
96
248
255
63
176
255
47
96
224
255
255
255
96
248
255
255
0
255
255
0
255
255
0
255
255
0
255
255
0
255
255
0
255
255
0
255
47
96
224
47
96
224
63
176
255
63
176
255
63
176
255
63
176
255
47
96
224
32
16
160
96
248
255
96
248
255
63
176
255
255
0
255
255
0
255
255
0
255
255
0
255
255
0
255
255
0
255
255
0
255
32
16
160
47
96
224
47
96
224
63
176
255
47
96
224
32
16
160
32
16
160
63
176
255
63
176
255
63
176
255
47
96
224
255
0
255
255
0
255
255
0
255
255
0
255
255
0
255
255
0
255
255
0
255
255
0
255
255
0
255
255
0
255
255
0
255
255
0
255
47
96
224
47
96
224
47
96
224
32
16
160
47
96
224
63
176
255
255
0
255
255
0
255
255
0
255
255
0
255
255
0
255
255
0
255
223
136
31
223
136
31
255
0
255
255
0
255
255
0
255
255
0
255
255
0
255
255
0
255
255
0
255
47
96
224
63
176
255
47
96
224
255
0
255
255
0
255
255
0
255
255
0
255
255
0
255
160
96
15
223
136
31
223
136
31
223
136
31
255
0
255
160
96
15
223
136
31
255
0
255
255
0
255
255
0
255
32
16
160
47
96
224
255
0
255
255
0
255
255
0
255
255
0
255
255
0
255
255
0
255
160
96
15
160
96
15
160
96
15
223
136
31
160
96
15
160
96
15
160
96
15
223
136
31
160
96
15
32
16
160
47
96
224
255
0
255
255
0
255
255
0
255
255
0
255
255
0
255
