P3
# Created by GIMP version 2.10.32 PNM plug-in
18 24
255
32
156
0
32
156
0
32
156
0
32
156
0
32
156
0
32
156
0
32
156
0
32
156
0
246
246
246
32
156
0
32
156
0
32
156
0
246
246
246
32
156
0
32
156
0
246
246
246
32
156
0
32
156
0
32
156
0
32
156
0
32
156
0
32
156
0
32
156
0
32
156
0
32
156
0
32
156
0
189
189
189
246
246
246
123
123
123
213
213
213
246
246
246
123
123
123
246
246
246
189
189
189
32
156
0
32
156
0
32
156
0
32
156
0
32
156
0
32
156
0
32
156
0
32
156
0
32
156
0
32
156
0
123
123
123
246
246
246
246
246
246
246
246
246
213
213
213
246
246
246
246
246
246
123
123
123
32
156
0
32
156
0
32
156
0
32
156
0
32
156
0
32
156
0
32
156
0
32
156
0
213
213
213
246
246
246
246
246
246
213
213
213
65
189
0
65
189
0
65
189
0
65
189
0
213
213
213
32
156
0
32
156
0
32
156
0
32
156
0
32
156
0
32
156
0
32
156
0
32
156
0
32
156
0
32
156
0
189
189
189
213
213
213
65
189
0
115
230
16
180
246
98
180
246
98
115
230
16
65
189
0
16
32
0
32
156
0
32
156
0
32
156
0
32
156
0
32
156
0
32
156
0
32
156
0
32
156
0
32
156
0
32
156
0
16
32
0
65
189
0
115
230
16
65
189
0
57
106
0
180
246
98
180
246
98
16
32
0
32
156
0
32
156
0
32
156
0
32
156
0
32
156
0
32
156
0
32
156
0
32
156
0
32
156
0
32
156
0
16
32
0
65
189
0
115
230
16
57
106
0
180
246
98
115
230
16
0
0
0
65
189
0
16
32
0
32
156
0
32
156
0
32
156
0
32
156
0
32
156
0
32
156
0
32
156
0
32
156
0
16
32
0
41
156
0
57
106
0
65
189
0
57
106
0
115
230
16
0
0
0
230
238
90
65
189
0
16
32
0
32
156
0
32
156
0
32
156
0
32
156
0
32
156
0
32
156
0
32
156
0
246
246
246
246
246
246
213
213
213
189
189
189
57
106
0
57
106
0
65
189
0
0
0
0
0
0
0
180
246
98
16
32
0
32
156
0
32
156
0
32
156
0
32
156
0
32
156
0
32
156
0
0
0
0
16
65
156
16
74
189
246
246
246
246
246
246
213
213
213
16
32
0
41
156
0
180
246
98
180
246
98
0
0
0
16
32
0
32
156
0
32
156
0
32
156
0
32
156
0
32
156
0
0
0
0
32
115
238
16
65
156
32
115
238
32
115
238
16
74
189
246
246
246
0
0
0
0
0
0
16
32
0
41
156
0
180
246
98
16
32
0
32
156
0
32
156
0
32
156
0
32
156
0
0
0
0
24
90
205
41
148
246
0
0
0
32
115
238
74
172
255
16
74
189
16
74
189
16
32
0
57
106
0
0
0
0
16
32
0
16
32
0
32
156
0
32
156
0
32
156
0
32
156
0
32
156
0
0
0
0
32
115
238
41
148
246
0
0
0
41
148
246
41
148
246
0
0
0
16
74
189
16
32
0
148
230
49
0
0
0
32
156
0
32
156
0
32
156
0
32
156
0
32
156
0
32
156
0
0
0
0
24
90
205
41
148
246
41
148
246
0
0
0
41
148
246
32
115
238
0
0
0
16
74
189
16
32
0
65
189
0
180
246
98
16
32
0
32
156
0
32
156
0
32
156
0
32
156
0
32
156
0
0
0
0
32
115
238
41
148
246
41
148
246
0
0
0
32
115
238
16
74
189
74
172
255
0
0
0
0
0
0
16
32
0
16
32
0
32
156
0
32
156
0
32
156
0
32
156
0
32
156
0
32
156
0
0
0
0
41
148
246
32
115
238
41
148
246
0
0
0
16
74
189
41
148
246
32
115
238
41
148
246
115
230
16
0
0
0
16
32
0
32
156
0
32
156
0
32
156
0
32
156
0
32
156
0
32
156
0
0
0
0
41
148
246
0
0
0
41
148
246
32
115
238
0
0
0
0
0
0
0
0
0
0
0
0
65
189
0
180
246
98
0
0
0
32
156
0
32
156
0
32
156
0
32
156
0
32
156
0
32
156
0
32
156
0
0
0
0
65
65
65
0
0
0
65
65
65
65
65
65
41
41
41
41
41
41
41
41
41
0
0
0
115
230
16
0
0
0
32
156
0
32
156
0
32
156
0
32
156
0
32
156
0
32
156
0
32
156
0
0
0
0
0
0
0
41
41
41
106
106
106
106
106
106
65
65
65
0
0
0
41
41
41
41
41
41
0
0
0
32
156
0
32
156
0
32
156
0
32
156
0
32
156
0
32
156
0
32
156
0
0
0
0
41
123
0
115
230
16
180
246
98
115
230
16
0
0
0
0
0
0
41
123
0
41
123
0
16
32
0
16
32
0
32
156
0
32
156
0
32
156
0
32
156
0
32
156
0
32
156
0
32
156
0
16
32
0
115
230
16
41
123
0
16
32
0
16
32
0
32
156
0
16
32
0
41
123
0
65
189
0
115
230
16
65
189
0
16
32
0
32
156
0
32
156
0
32
156
0
32
156
0
32
156
0
32
156
0
16
32
0
65
189
0
180
246
98
180
246
98
180
246
98
16
32
0
32
156
0
16
32
0
16
32
0
16
32
0
16
32
0
32
156
0
32
156
0
32
156
0
32
156
0
32
156
0
32
156
0
32
156
0
32
156
0
16
32
0
16
32
0
16
32
0
16
32
0
32
156
0
32
156
0
32
156
0
32
156
0
32
156
0
32
156
0
32
156
0
32
156
0
32
156
0
32
156
0
32
156
0
32
156
0
32
156
0
32
156
0
32
156
0
32
156
0
32
156
0
32
156
0
32
156
0
32
156
0
32
156
0
32
156
0
32
156
0
32
156
0
32
156
0
32
156
0
32
156
0
32
156
0
32
156
0
